<svg width="48" height="48" viewBox="0 0 48 48" fill="none" xmlns="http://www.w3.org/2000/svg">
<path d="M38.0995 0H10.3596C7.73494 0 5.59961 2.13533 5.59961 4.75996V43.24C5.59961 45.8647 7.73494 48 10.3596 48H38.0995C40.7241 48 42.8594 45.8647 42.8594 43.24V4.75996C42.8594 2.13533 40.7242 0 38.0995 0ZM40.9075 43.24C40.9075 44.7883 39.6478 46.048 38.0995 46.048H10.3596C8.81126 46.048 7.55159 44.7883 7.55159 43.24V4.75996C7.55159 3.21165 8.81126 1.95198 10.3596 1.95198H38.0995C39.6478 1.95198 40.9075 3.21165 40.9075 4.75996V43.24Z" fill="black"/>
<path d="M29.8188 5.18506H17.6786C17.4511 5.18506 17.2666 5.6204 17.2666 6.15738C17.2666 6.69436 17.4511 7.1297 17.6786 7.1297H29.8188C30.0464 7.1297 30.2309 6.69436 30.2309 6.15738C30.2309 5.6204 30.0464 5.18506 29.8188 5.18506Z" fill="black"/>
<path d="M34.0562 32.52H21.9701C21.4311 32.52 20.9941 32.957 20.9941 33.496C20.9941 34.035 21.4311 34.472 21.9701 34.472H34.0562C34.5952 34.472 35.0322 34.035 35.0322 33.496C35.0322 32.957 34.5952 32.52 34.0562 32.52Z" fill="black"/>
<path d="M14.3988 34.472H18.7151C19.2541 34.472 19.691 34.035 19.691 33.496C19.691 32.957 19.2541 32.52 18.7151 32.52H14.3988C13.8598 32.52 13.4229 32.957 13.4229 33.496C13.4229 34.035 13.8598 34.472 14.3988 34.472Z" fill="black"/>
<path d="M34.0547 36.2495H14.3988C13.8598 36.2495 13.4229 36.6865 13.4229 37.2255C13.4229 37.7645 13.8598 38.2015 14.3988 38.2015H34.0547C34.5937 38.2015 35.0307 37.7645 35.0307 37.2255C35.0307 36.6865 34.5937 36.2495 34.0547 36.2495Z" fill="black"/>
<path d="M34.0547 39.9824H14.3988C13.8598 39.9824 13.4229 40.4194 13.4229 40.9584C13.4229 41.4974 13.8598 41.9344 14.3988 41.9344H34.0547C34.5937 41.9344 35.0307 41.4974 35.0307 40.9584C35.0307 40.4194 34.5937 39.9824 34.0547 39.9824Z" fill="black"/>
</svg>
