<svg width="606" height="65" viewBox="0 0 606 65" fill="none" xmlns="http://www.w3.org/2000/svg">
<path d="M10.9042 49.8703H0.824219V39.9703H10.9042V25.3003H0.824219V15.4003H10.9042V1.00027H22.4242V15.4003H36.1942V1.00027H47.7142V15.4003H57.7942V25.3003H47.7142V39.9703H57.7942V49.8703H47.7142V64.0003H36.1942V49.8703H22.4242V64.0003H10.9042V49.8703ZM36.1942 40.1503V25.1203H22.4242V40.1503H36.1942Z" fill="white"/>
<path d="M88.2128 64.7203C83.5928 64.7203 79.5128 63.7303 75.9728 61.7503C72.4928 59.7703 69.7928 56.9803 67.8728 53.3803C65.9528 49.7203 64.9928 45.5203 64.9928 40.7803V24.2203C64.9928 19.4803 65.9528 15.3103 67.8728 11.7103C69.8528 8.05027 72.6128 5.23027 76.1528 3.25027C79.7528 1.27027 83.8928 0.280273 88.5728 0.280273H98.1128C102.613 0.280273 106.573 1.24027 109.993 3.16027C113.413 5.08027 116.053 7.78027 117.913 11.2603C119.833 14.6803 120.793 18.6703 120.793 23.2303H108.553C108.553 19.6303 107.593 16.7503 105.673 14.5903C103.753 12.3703 101.233 11.2603 98.1128 11.2603H88.5728C85.2128 11.2603 82.5128 12.5203 80.4728 15.0403C78.4328 17.5003 77.4128 20.7403 77.4128 24.7603V40.2403C77.4128 44.2603 78.4028 47.5303 80.3828 50.0503C82.3628 52.5103 84.9728 53.7403 88.2128 53.7403H97.9328C101.113 53.7403 103.693 52.5103 105.673 50.0503C107.713 47.5903 108.733 44.3503 108.733 40.3303H120.973C120.973 45.1903 120.013 49.4803 118.093 53.2003C116.173 56.8603 113.473 59.7103 109.993 61.7503C106.513 63.7303 102.493 64.7203 97.9328 64.7203H88.2128Z" fill="white"/>
<path d="M143.876 64.0003C138.536 64.0003 134.606 62.8903 132.086 60.6703C129.626 58.3903 128.396 54.8803 128.396 50.1403V1.00027H140.636V49.4203C140.636 50.8603 140.966 51.9103 141.626 52.5703C142.286 53.2303 143.336 53.5603 144.776 53.5603H149.636V64.0003H143.876Z" fill="white"/>
<path d="M170.237 64.7203C165.497 64.7203 161.687 63.1303 158.807 59.9503C155.927 56.7103 154.487 52.4803 154.487 47.2603V19.0903H166.727V47.4403C166.727 49.4203 167.207 51.0403 168.167 52.3003C169.187 53.5003 170.507 54.1003 172.127 54.1003H177.347C179.327 54.1003 181.127 53.2903 182.747 51.6703C184.367 49.9903 185.507 47.8003 186.167 45.1003V19.0903H198.407V64.0003H187.067V58.2403C185.687 60.1603 183.977 61.7203 181.937 62.9203C179.957 64.1203 178.037 64.7203 176.177 64.7203H170.237Z" fill="white"/>
<path d="M230.506 64.7203C228.646 64.7203 226.756 64.1203 224.836 62.9203C222.916 61.7203 221.356 60.1603 220.156 58.2403V64.0003H208.816V1.00027H221.056V22.6003C222.256 21.3403 223.726 20.3203 225.466 19.5403C227.266 18.7603 228.976 18.3703 230.596 18.3703H236.896C240.376 18.3703 243.436 19.1203 246.076 20.6203C248.776 22.0603 250.846 24.1303 252.286 26.8303C253.786 29.5303 254.536 32.6503 254.536 36.1903V46.4503C254.536 50.0503 253.786 53.2303 252.286 55.9903C250.786 58.7503 248.686 60.9103 245.986 62.4703C243.286 63.9703 240.196 64.7203 236.716 64.7203H230.506ZM235.276 54.0103C237.376 54.0103 239.056 53.2303 240.316 51.6703C241.636 50.1103 242.296 48.0703 242.296 45.5503V37.0903C242.296 34.6903 241.666 32.7703 240.406 31.3303C239.146 29.8303 237.496 29.0803 235.456 29.0803H229.876C227.476 29.0803 225.466 29.9203 223.846 31.6003C222.226 33.2803 221.296 35.5003 221.056 38.2603V46.0003C221.476 48.4003 222.436 50.3503 223.936 51.8503C225.496 53.2903 227.326 54.0103 229.426 54.0103H235.276Z" fill="white"/>
<path d="M280.502 64.7203C276.722 64.7203 273.362 63.9703 270.422 62.4703C267.542 60.9703 265.292 58.8703 263.672 56.1703C262.112 53.4703 261.332 50.3503 261.332 46.8103V36.2803C261.332 32.7403 262.112 29.6203 263.672 26.9203C265.292 24.2203 267.542 22.1203 270.422 20.6203C273.302 19.1203 276.632 18.3703 280.412 18.3703H287.522C291.122 18.3703 294.302 19.0903 297.062 20.5303C299.822 21.9703 301.952 24.0103 303.452 26.6503C304.952 29.2303 305.702 32.2303 305.702 35.6503H293.552C293.552 33.6103 292.982 31.9903 291.842 30.7903C290.762 29.5303 289.322 28.9003 287.522 28.9003H280.592C278.492 28.9003 276.782 29.6803 275.462 31.2403C274.202 32.7403 273.572 34.7203 273.572 37.1803V45.9103C273.572 48.3703 274.232 50.3803 275.552 51.9403C276.872 53.4403 278.582 54.1903 280.682 54.1903H287.612C289.532 54.1903 291.062 53.5003 292.202 52.1203C293.402 50.7403 294.002 48.9103 294.002 46.6303H306.152C306.152 52.0903 304.442 56.4703 301.022 59.7703C297.662 63.0703 293.192 64.7203 287.612 64.7203H280.502Z" fill="white"/>
<path d="M330.863 64.7203C327.083 64.7203 323.723 64.0003 320.783 62.5603C317.903 61.0603 315.653 58.9603 314.033 56.2603C312.473 53.5603 311.693 50.4403 311.693 46.9003V36.3703C311.693 32.8303 312.503 29.7103 314.123 27.0103C315.743 24.2503 317.993 22.1203 320.873 20.6203C323.813 19.1203 327.173 18.3703 330.953 18.3703H339.053C342.833 18.3703 346.163 19.1203 349.043 20.6203C351.983 22.1203 354.263 24.2503 355.883 27.0103C357.503 29.7103 358.313 32.8303 358.313 36.3703V46.9003C358.313 50.4403 357.503 53.5603 355.883 56.2603C354.263 58.9603 351.983 61.0603 349.043 62.5603C346.163 64.0003 342.803 64.7203 338.963 64.7203H330.863ZM338.783 54.1903C341.003 54.1903 342.773 53.4403 344.093 51.9403C345.413 50.3803 346.073 48.3703 346.073 45.9103V37.1803C346.073 34.7203 345.413 32.7403 344.093 31.2403C342.773 29.6803 341.033 28.9003 338.873 28.9003H331.133C328.973 28.9003 327.233 29.6803 325.913 31.2403C324.593 32.7403 323.933 34.7203 323.933 37.1803V45.9103C323.933 48.3703 324.593 50.3803 325.913 51.9403C327.233 53.4403 328.943 54.1903 331.043 54.1903H338.783Z" fill="white"/>
<path d="M366.931 19.0903H378.271V24.4903C379.591 22.6303 381.301 21.1603 383.401 20.0803C385.501 18.9403 387.601 18.3703 389.701 18.3703H395.101C399.901 18.3703 403.741 19.8703 406.621 22.8703C409.561 25.8703 411.031 29.8303 411.031 34.7503V64.0003H398.791V35.2003C398.791 33.3403 398.281 31.8403 397.261 30.7003C396.301 29.5603 395.041 28.9903 393.481 28.9903H388.081C385.981 28.9903 384.091 29.7703 382.411 31.3303C380.791 32.8303 379.711 34.8103 379.171 37.2703V64.0003H366.931V19.0903Z" fill="white"/>
<path d="M420.896 19.0903H432.236V24.4903C433.556 22.6303 435.266 21.1603 437.366 20.0803C439.466 18.9403 441.566 18.3703 443.666 18.3703H449.066C453.866 18.3703 457.706 19.8703 460.586 22.8703C463.526 25.8703 464.996 29.8303 464.996 34.7503V64.0003H452.756V35.2003C452.756 33.3403 452.246 31.8403 451.226 30.7003C450.266 29.5603 449.006 28.9903 447.446 28.9903H442.046C439.946 28.9903 438.056 29.7703 436.376 31.3303C434.756 32.8303 433.676 34.8103 433.136 37.2703V64.0003H420.896V19.0903Z" fill="white"/>
<path d="M492.321 64.7203C488.541 64.7203 485.181 64.0303 482.241 62.6503C479.361 61.2103 477.111 59.2303 475.491 56.7103C473.871 54.1303 473.061 51.1903 473.061 47.8903V36.2803C473.061 32.7403 473.871 29.6203 475.491 26.9203C477.111 24.2203 479.361 22.1203 482.241 20.6203C485.181 19.1203 488.541 18.3703 492.321 18.3703H499.521C505.281 18.3703 509.901 19.9903 513.381 23.2303C516.861 26.4703 518.601 30.7903 518.601 36.1903V45.7303H485.301V47.8903C485.301 49.8703 485.931 51.4603 487.191 52.6603C488.451 53.8603 490.161 54.4603 492.321 54.4603H499.341C501.441 54.4603 503.121 54.0103 504.381 53.1103C505.701 52.1503 506.361 50.9203 506.361 49.4203H518.421C518.421 52.4203 517.611 55.0903 515.991 57.4303C514.371 59.7703 512.091 61.5703 509.151 62.8303C506.271 64.0903 502.941 64.7203 499.161 64.7203H492.321ZM506.541 36.9103V36.1903C506.541 33.8503 505.911 31.9903 504.651 30.6103C503.391 29.1703 501.711 28.4503 499.611 28.4503H492.321C490.161 28.4503 488.421 29.2003 487.101 30.7003C485.781 32.2003 485.121 34.1803 485.121 36.6403V36.9103H506.541Z" fill="white"/>
<path d="M544.262 64.7203C540.482 64.7203 537.122 63.9703 534.182 62.4703C531.302 60.9703 529.052 58.8703 527.432 56.1703C525.872 53.4703 525.092 50.3503 525.092 46.8103V36.2803C525.092 32.7403 525.872 29.6203 527.432 26.9203C529.052 24.2203 531.302 22.1203 534.182 20.6203C537.062 19.1203 540.392 18.3703 544.172 18.3703H551.282C554.882 18.3703 558.062 19.0903 560.822 20.5303C563.582 21.9703 565.712 24.0103 567.212 26.6503C568.712 29.2303 569.462 32.2303 569.462 35.6503H557.312C557.312 33.6103 556.742 31.9903 555.602 30.7903C554.522 29.5303 553.082 28.9003 551.282 28.9003H544.352C542.252 28.9003 540.542 29.6803 539.222 31.2403C537.962 32.7403 537.332 34.7203 537.332 37.1803V45.9103C537.332 48.3703 537.992 50.3803 539.312 51.9403C540.632 53.4403 542.342 54.1903 544.442 54.1903H551.372C553.292 54.1903 554.822 53.5003 555.962 52.1203C557.162 50.7403 557.762 48.9103 557.762 46.6303H569.912C569.912 52.0903 568.202 56.4703 564.782 59.7703C561.422 63.0703 556.952 64.7203 551.372 64.7203H544.262Z" fill="white"/>
<path d="M596.522 64.0003C591.242 64.0003 587.372 62.8003 584.912 60.4003C582.452 58.0003 581.222 54.2803 581.222 49.2403V29.5303H573.302V19.0903H581.582V5.50027H593.462V19.0903H605.162V29.5303H593.462V48.7003C593.462 50.3803 593.762 51.6103 594.362 52.3903C595.022 53.1703 596.042 53.5603 597.422 53.5603H605.162V64.0003H596.522Z" fill="white"/>
</svg>
