<svg width="25" height="24" viewBox="0 0 25 24" fill="none" xmlns="http://www.w3.org/2000/svg">
<path fill-rule="evenodd" clip-rule="evenodd" d="M17.5303 14.4697C17.8232 14.7626 17.8232 15.2374 17.5303 15.5303L13.0303 20.0303C12.8897 20.171 12.6989 20.25 12.5 20.25C12.3011 20.25 12.1103 20.171 11.9697 20.0303L7.46967 15.5303C7.17678 15.2374 7.17678 14.7626 7.46967 14.4697C7.76257 14.1768 8.23744 14.1768 8.53033 14.4697L11.75 17.6893L11.75 1.5C11.75 1.08579 12.0858 0.75 12.5 0.75C12.9142 0.75 13.25 1.08579 13.25 1.5L13.25 17.6893L16.4697 14.4697C16.7626 14.1768 17.2374 14.1768 17.5303 14.4697Z" fill="black"/>
<path fill-rule="evenodd" clip-rule="evenodd" d="M0.5 20.25V16.5H2V20.25C2 21.4926 3.00736 22.5 4.25 22.5H20.75C21.9926 22.5 23 21.4926 23 20.25V16.5H24.5V20.25C24.5 22.3211 22.8211 24 20.75 24H4.25C2.17893 24 0.5 22.3211 0.5 20.25Z" fill="black"/>
</svg>
