<svg width="25" height="24" viewBox="0 0 25 24" fill="none" xmlns="http://www.w3.org/2000/svg">
<path d="M14.4544 7.82458H15.7324V5.59858C15.5119 5.56825 14.7537 5.5 13.8706 5.5C12.028 5.5 10.7658 6.65908 10.7658 8.78942V10.75H8.73242V13.2385H10.7658V19.5H13.2587V13.2391H15.2098L15.5195 10.7506H13.2581V9.03617C13.2587 8.31692 13.4524 7.82458 14.4544 7.82458Z" fill="black"/>
<path d="M24.4045 7.05609C24.3489 5.78087 24.1449 4.90417 23.8527 4.1445C23.5513 3.33813 23.0876 2.61618 22.4801 2.01602C21.8865 1.40653 21.1678 0.932924 20.3795 0.632938C19.6238 0.33753 18.7612 0.131313 17.5 0.0750881C16.2294 0.0141019 15.826 0 12.6032 0C9.38049 0 8.97711 0.0141019 7.71116 0.0703264C6.44992 0.126551 5.58283 0.332952 4.83167 0.628176C4.03395 0.932924 3.31992 1.40177 2.72635 2.01602C2.12353 2.61618 1.6553 3.34289 1.35842 4.13992C1.06625 4.90417 0.862295 5.77611 0.806687 7.05133C0.746369 8.33607 0.732422 8.74392 0.732422 12.0024C0.732422 15.2608 0.746369 15.6687 0.801977 16.9487C0.857586 18.2239 1.06172 19.1006 1.35389 19.8603C1.6553 20.6666 2.12353 21.3886 2.72635 21.9887C3.31992 22.5982 4.03866 23.0718 4.82696 23.3718C5.58283 23.6672 6.44521 23.8734 7.70663 23.9297C8.9724 23.9861 9.37596 24 12.5987 24C15.8214 24 16.2248 23.9861 17.4908 23.9297C18.752 23.8734 19.6191 23.6672 20.3703 23.3718C21.9655 22.7482 23.2267 21.473 23.8435 19.8603C24.1355 19.096 24.3396 18.2239 24.3952 16.9487C24.4509 15.6687 24.4648 15.2608 24.4648 12.0024C24.4648 8.74392 24.4601 8.33607 24.4045 7.05609ZM22.2669 16.8549C22.2158 18.027 22.0211 18.66 21.8588 19.0819C21.46 20.1275 20.6392 20.9573 19.6052 21.3606C19.1878 21.5247 18.5573 21.7215 17.4026 21.773C16.1506 21.8294 15.7751 21.8433 12.6079 21.8433C9.44081 21.8433 9.06061 21.8294 7.81314 21.773C6.65388 21.7215 6.02788 21.5247 5.61055 21.3606C5.09594 21.1683 4.62753 20.8635 4.24733 20.465C3.85318 20.0758 3.55177 19.607 3.36158 19.0867C3.19929 18.6647 3.00457 18.027 2.95367 16.8597C2.89788 15.5938 2.88411 15.214 2.88411 12.0117C2.88411 8.80949 2.89788 8.42507 2.95367 7.16396C3.00457 5.99185 3.19929 5.35891 3.36158 4.93695C3.55177 4.41646 3.85318 3.94304 4.25204 3.55844C4.63677 3.15993 5.10047 2.85518 5.61526 2.66306C6.03259 2.49897 6.6633 2.30209 7.81785 2.25045C9.06985 2.19422 9.44552 2.18012 12.6125 2.18012C15.7843 2.18012 16.1598 2.19422 17.4073 2.25045C18.5665 2.30209 19.1925 2.49897 19.6099 2.66306C20.1245 2.85518 20.5929 3.15993 20.9731 3.55844C21.3672 3.94762 21.6686 4.41646 21.8588 4.93695C22.0211 5.35891 22.2158 5.99643 22.2669 7.16396C22.3225 8.42983 22.3365 8.80949 22.3365 12.0117C22.3365 15.214 22.3225 15.589 22.2669 16.8549Z" fill="black"/>
</svg>
