<svg width="48" height="48" viewBox="0 0 48 48" fill="none" xmlns="http://www.w3.org/2000/svg">
<path d="M0.960074 48H24.0001H47.04C47.616 48 48 47.616 48 47.04V29.7601V12.4801V0.959962C48 0.383962 47.616 0 47.04 0H28.8H18.2399H0.959961C0.383962 0 0 0.383962 0 0.959962V23.9999V31.68V43.2V47.0399C0 47.6159 0.384074 48 0.960074 48ZM1.92004 32.6399H11.52C11.04 37.728 7.00796 41.76 1.92004 42.2399V32.6399ZM1.92004 1.92004H17.28V7.68003H16.32C15.744 7.68003 15.3601 8.06399 15.3601 8.63999C15.3601 9.21599 15.744 9.59996 16.32 9.59996H20.16C20.736 9.59996 21.1199 9.21599 21.1199 8.63999C21.1199 8.06399 20.736 7.68003 20.16 7.68003H19.2V1.92004H27.84V12.4801C27.84 13.0561 28.224 13.44 28.8 13.44H32.6399V14.4C32.6399 14.976 33.0239 15.36 33.5999 15.36C34.1759 15.36 34.5599 14.976 34.5599 14.4V10.56C34.5599 9.98403 34.1759 9.60007 33.5999 9.60007C33.0239 9.60007 32.6399 9.98403 32.6399 10.56V11.52H29.7599V1.92004H46.08V11.52H42.24V10.56C42.24 9.98403 41.856 9.60007 41.28 9.60007C40.704 9.60007 40.3201 9.98403 40.3201 10.56V14.4C40.3201 14.976 40.704 15.36 41.28 15.36C41.856 15.36 42.24 14.976 42.24 14.4V13.44H46.08V28.8H40.32V27.84C40.32 27.264 39.936 26.8801 39.36 26.8801C38.784 26.8801 38.4 27.264 38.4 27.84V31.68C38.4 32.256 38.784 32.6399 39.36 32.6399C39.936 32.6399 40.32 32.256 40.32 31.68V30.72H46.08V46.08H24.96V30.72H30.72V31.68C30.72 32.256 31.104 32.6399 31.68 32.6399C32.256 32.6399 32.6399 32.256 32.6399 31.68V27.84C32.6399 27.264 32.256 26.8801 31.68 26.8801C31.104 26.8801 30.72 27.264 30.72 27.84V28.8H24.0001C23.4241 28.8 23.0401 29.1839 23.0401 29.7599V46.08H1.92004V44.1238C8.38034 43.6365 13.44 38.2689 13.44 31.68C13.44 31.104 13.0561 30.72 12.4801 30.72H1.92004V24.96H18.2401C18.8161 24.96 19.2 24.5761 19.2 24.0001V17.28H20.16C20.736 17.28 21.1199 16.896 21.1199 16.32C21.1199 15.744 20.736 15.3601 20.16 15.3601H16.32C15.744 15.3601 15.3601 15.744 15.3601 16.32C15.3601 16.896 15.744 17.28 16.32 17.28H17.28V23.04H1.92004V1.92004Z" fill="black"/>
</svg>
