<svg width="25" height="24" viewBox="0 0 25 24" fill="none" xmlns="http://www.w3.org/2000/svg">
<g clip-path="url(#clip0)">
<path d="M24.1369 7.05609C24.0813 5.78087 23.8773 4.90417 23.5852 4.1445C23.2838 3.33813 22.8201 2.61618 22.2125 2.01602C21.619 1.40653 20.9002 0.932924 20.1119 0.632938C19.3562 0.33753 18.4937 0.131313 17.2324 0.0750881C15.9618 0.0141019 15.5584 0 12.3357 0C9.11291 0 8.70953 0.0141019 7.44358 0.0703264C6.18234 0.126551 5.31525 0.332952 4.56409 0.628176C3.76638 0.932924 3.05235 1.40177 2.45877 2.01602C1.85595 2.61618 1.38772 3.34289 1.09084 4.13992C0.798674 4.90417 0.594717 5.77611 0.539109 7.05133C0.478791 8.33607 0.464844 8.74392 0.464844 12.0024C0.464844 15.2608 0.478791 15.6687 0.534399 16.9487C0.590007 18.2239 0.794146 19.1006 1.08631 19.8603C1.38772 20.6666 1.85595 21.3886 2.45877 21.9887C3.05235 22.5982 3.77109 23.0718 4.55938 23.3718C5.31525 23.6672 6.17763 23.8734 7.43905 23.9297C8.70482 23.9861 9.10838 24 12.3311 24C15.5539 24 15.9572 23.9861 17.2232 23.9297C18.4844 23.8734 19.3515 23.6672 20.1027 23.3718C21.6979 22.7482 22.9592 21.473 23.5759 19.8603C23.8679 19.096 24.0721 18.2239 24.1277 16.9487C24.1833 15.6687 24.1972 15.2608 24.1972 12.0024C24.1972 8.74392 24.1925 8.33607 24.1369 7.05609ZM21.9993 16.8549C21.9483 18.027 21.7535 18.66 21.5912 19.0819C21.1924 20.1275 20.3717 20.9573 19.3376 21.3606C18.9202 21.5247 18.2897 21.7215 17.135 21.773C15.883 21.8294 15.5075 21.8433 12.3404 21.8433C9.17323 21.8433 8.79303 21.8294 7.54556 21.773C6.3863 21.7215 5.7603 21.5247 5.34297 21.3606C4.82837 21.1683 4.35995 20.8635 3.97975 20.465C3.5856 20.0758 3.2842 19.607 3.09401 19.0867C2.93171 18.6647 2.73699 18.027 2.68609 16.8597C2.6303 15.5938 2.61654 15.214 2.61654 12.0117C2.61654 8.80949 2.6303 8.42507 2.68609 7.16396C2.73699 5.99185 2.93171 5.35891 3.09401 4.93695C3.2842 4.41646 3.5856 3.94304 3.98446 3.55844C4.36919 3.15993 4.83289 2.85518 5.34768 2.66306C5.76501 2.49897 6.39572 2.30209 7.55027 2.25045C8.80227 2.19422 9.17794 2.18012 12.3449 2.18012C15.5167 2.18012 15.8922 2.19422 17.1397 2.25045C18.299 2.30209 18.9249 2.49897 19.3423 2.66306C19.8569 2.85518 20.3253 3.15993 20.7055 3.55844C21.0996 3.94762 21.4011 4.41646 21.5912 4.93695C21.7535 5.35891 21.9483 5.99643 21.9993 7.16396C22.0549 8.42983 22.0689 8.80949 22.0689 12.0117C22.0689 15.214 22.0549 15.589 21.9993 16.8549Z" fill="black"/>
<path d="M12.335 5.83691C8.96863 5.83691 6.2373 8.59833 6.2373 12.0022C6.2373 15.4061 8.96863 18.1675 12.335 18.1675C15.7016 18.1675 18.4327 15.4061 18.4327 12.0022C18.4327 8.59833 15.7016 5.83691 12.335 5.83691ZM12.335 16.0015C10.1511 16.0015 8.37958 14.2105 8.37958 12.0022C8.37958 9.79388 10.1511 8.00293 12.335 8.00293C14.5191 8.00293 16.2904 9.79388 16.2904 12.0022C16.2904 14.2105 14.5191 16.0015 12.335 16.0015Z" fill="black"/>
<path d="M20.0982 5.59263C20.0982 6.38747 19.4608 7.03194 18.6745 7.03194C17.8884 7.03194 17.251 6.38747 17.251 5.59263C17.251 4.79761 17.8884 4.15332 18.6745 4.15332C19.4608 4.15332 20.0982 4.79761 20.0982 5.59263Z" fill="black"/>
</g>
<defs>
<clipPath id="clip0">
<rect width="23.7324" height="24" fill="white" transform="translate(0.464844)"/>
</clipPath>
</defs>
</svg>
