<svg width="24" height="24" viewBox="0 0 24 24" fill="none" xmlns="http://www.w3.org/2000/svg">
<path d="M6 7.44103C6 6.64552 6.6455 6 7.44099 6C8.23599 6 8.88148 6.64552 8.88198 7.44103C8.88198 8.23655 8.23649 8.89557 7.44099 8.89557C6.6455 8.89557 6 8.23655 6 7.44103Z" fill="#898989"/>
<path d="M18 17.9993V13.5982C18 11.4452 17.5365 9.78665 15.0195 9.78665C13.8095 9.78665 12.9975 10.4507 12.666 11.0802H12.631V9.98765H10.2445V17.9993H12.7295V14.0322C12.7295 12.9877 12.9275 11.9777 14.221 11.9777C15.4955 11.9777 15.5145 13.1697 15.5145 14.0993V17.9998L18 17.9993Z" fill="#898989"/>
<path d="M6.19797 9.98831H8.68595V18H6.19797V9.98831Z" fill="#898989"/>
<path d="M23.6721 7.05609C23.6165 5.78087 23.4125 4.90417 23.1203 4.1445C22.8189 3.33813 22.3552 2.61618 21.7477 2.01602C21.1541 1.40653 20.4354 0.932924 19.6471 0.632938C18.8914 0.33753 18.0288 0.131313 16.7676 0.0750881C15.4969 0.0141019 15.0935 0 11.8708 0C8.64807 0 8.24468 0.0141019 6.97874 0.0703264C5.7175 0.126551 4.85041 0.332952 4.09925 0.628176C3.30153 0.932924 2.5875 1.40177 1.99392 2.01602C1.39111 2.61618 0.922878 3.34289 0.626 4.13992C0.33383 4.90417 0.129873 5.77611 0.074265 7.05133C0.0139473 8.33607 0 8.74392 0 12.0024C0 15.2608 0.0139473 15.6687 0.0695555 16.9487C0.125164 18.2239 0.329302 19.1006 0.621471 19.8603C0.922878 20.6666 1.39111 21.3886 1.99392 21.9887C2.5875 22.5982 3.30624 23.0718 4.09454 23.3718C4.85041 23.6672 5.71279 23.8734 6.97421 23.9297C8.23997 23.9861 8.64354 24 11.8663 24C15.089 24 15.4924 23.9861 16.7584 23.9297C18.0196 23.8734 18.8867 23.6672 19.6378 23.3718C21.2331 22.7482 22.4943 21.473 23.1111 19.8603C23.4031 19.096 23.6072 18.2239 23.6628 16.9487C23.7184 15.6687 23.7324 15.2608 23.7324 12.0024C23.7324 8.74392 23.7277 8.33607 23.6721 7.05609ZM21.5345 16.8549C21.4834 18.027 21.2887 18.66 21.1264 19.0819C20.7275 20.1275 19.9068 20.9573 18.8727 21.3606C18.4554 21.5247 17.8249 21.7215 16.6701 21.773C15.4181 21.8294 15.0426 21.8433 11.8755 21.8433C8.70839 21.8433 8.32819 21.8294 7.08072 21.773C5.92146 21.7215 5.29546 21.5247 4.87812 21.3606C4.36352 21.1683 3.89511 20.8635 3.51491 20.465C3.12076 20.0758 2.81935 19.607 2.62916 19.0867C2.46687 18.6647 2.27215 18.027 2.22125 16.8597C2.16546 15.5938 2.15169 15.214 2.15169 12.0117C2.15169 8.80949 2.16546 8.42507 2.22125 7.16396C2.27215 5.99185 2.46687 5.35891 2.62916 4.93695C2.81935 4.41646 3.12076 3.94304 3.51962 3.55844C3.90435 3.15993 4.36805 2.85518 4.88283 2.66306C5.30017 2.49897 5.93088 2.30209 7.08542 2.25045C8.33742 2.19422 8.7131 2.18012 11.88 2.18012C15.0519 2.18012 15.4274 2.19422 16.6748 2.25045C17.8341 2.30209 18.4601 2.49897 18.8774 2.66306C19.392 2.85518 19.8605 3.15993 20.2407 3.55844C20.6348 3.94762 20.9362 4.41646 21.1264 4.93695C21.2887 5.35891 21.4834 5.99643 21.5345 7.16396C21.5901 8.42983 21.6041 8.80949 21.6041 12.0117C21.6041 15.214 21.5901 15.589 21.5345 16.8549Z" fill="#898989"/>
</svg>
