<svg width="121" height="121" viewBox="0 0 121 121" fill="none" xmlns="http://www.w3.org/2000/svg">
<path d="M3.53481 119.68C3.07366 119.488 2.6743 119.173 2.38061 118.769C2.09811 118.366 1.95111 117.883 1.96091 117.392H3.56047C3.58349 117.763 3.7496 118.112 4.02396 118.364C4.29974 118.616 4.68649 118.741 5.1842 118.741C5.69952 118.741 6.10212 118.616 6.39199 118.364C6.53197 118.246 6.64357 118.099 6.71847 117.932C6.79337 117.765 6.82962 117.583 6.82452 117.401C6.83608 117.126 6.73961 116.858 6.5558 116.653C6.3693 116.456 6.14067 116.304 5.88698 116.207C5.52434 116.075 5.15434 115.963 4.77883 115.873C4.28497 115.749 3.80082 115.589 3.33024 115.394C2.95386 115.228 2.62654 114.968 2.37986 114.639C2.11817 114.299 1.98707 113.845 1.98657 113.276C1.97615 112.788 2.11322 112.308 2.37986 111.899C2.65196 111.497 3.03444 111.183 3.48122 110.993C3.99929 110.774 4.55771 110.667 5.12003 110.679C6.00273 110.679 6.72589 110.899 7.28953 111.341C7.85316 111.782 8.16568 112.387 8.22708 113.157H6.57542C6.56095 112.99 6.51146 112.827 6.43018 112.68C6.3489 112.534 6.23764 112.406 6.10363 112.305C5.81477 112.068 5.43456 111.95 4.96301 111.951C4.53425 111.951 4.1845 112.06 3.91375 112.278C3.64301 112.497 3.50763 112.811 3.50763 113.222C3.49804 113.476 3.58982 113.724 3.76278 113.91C3.94566 114.098 4.16718 114.243 4.41197 114.337C4.76362 114.47 5.12249 114.584 5.4869 114.677C5.9895 114.809 6.48236 114.975 6.96192 115.175C7.3454 115.344 7.67933 115.608 7.93192 115.942C8.19814 116.288 8.33149 116.749 8.332 117.325C8.33204 117.789 8.20263 118.243 7.95834 118.636C7.69421 119.061 7.31735 119.403 6.86981 119.626C6.39374 119.875 5.83238 120.001 5.18571 120.003C4.61888 120.011 4.0566 119.901 3.53481 119.68Z" fill="white"/>
<path d="M26.0308 114.822C25.8129 115.233 25.4634 115.568 24.9823 115.825C24.5012 116.082 23.885 116.211 23.1336 116.211H21.482V119.91H19.9873V110.799H23.1336C23.8326 110.799 24.4247 110.919 24.9098 111.159C25.3615 111.369 25.7404 111.709 25.9983 112.136C26.2405 112.553 26.3652 113.029 26.3592 113.512C26.3604 113.969 26.2475 114.419 26.0308 114.822ZM24.4056 114.606C24.6849 114.347 24.8245 113.982 24.8245 113.51C24.8245 112.514 24.2609 112.016 23.1336 112.016H21.482V114.992H23.1336C23.7023 114.992 24.1263 114.863 24.4056 114.606Z" fill="white"/>
<path d="M43.1653 118.048H39.3518L38.6965 119.909H37.1362L40.4003 110.784H42.1312L45.3952 119.909H43.8221L43.1653 118.048ZM42.7456 116.828L41.2638 112.594L39.77 116.828H42.7456Z" fill="white"/>
<path d="M62.1876 118.048H58.3747L57.7195 119.909H56.1592L59.424 110.784H61.1542L64.419 119.909H62.8459L62.1876 118.048ZM61.7687 116.828L60.2868 112.594L58.7922 116.828H61.7687Z" fill="white"/>
<path d="M75.8416 112.934C76.2442 112.237 76.8287 111.663 77.5325 111.273C78.2478 110.875 79.0541 110.67 79.8727 110.677C80.8429 110.677 81.706 110.915 82.4619 111.392C83.218 111.868 83.7963 112.58 84.1075 113.417H82.3109C82.1029 112.966 81.7601 112.59 81.3296 112.342C80.8836 112.099 80.3819 111.977 79.8742 111.988C79.3102 111.978 78.7538 112.119 78.2617 112.394C77.7875 112.668 77.4026 113.074 77.1536 113.561C76.8869 114.069 76.7537 114.659 76.7543 115.331C76.7548 116.004 76.8879 116.594 77.1536 117.101C77.4031 117.59 77.7877 117.997 78.2617 118.274C78.7522 118.554 79.3093 118.697 79.8742 118.688C80.3818 118.698 80.8834 118.576 81.3296 118.334C81.76 118.085 82.1028 117.709 82.3109 117.258H84.1075C83.7974 118.094 83.2187 118.805 82.4619 119.277C81.707 119.749 80.8439 119.985 79.8727 119.985C79.052 119.995 78.2431 119.789 77.5265 119.389C76.8252 118.998 76.243 118.424 75.8416 117.728C75.4209 117 75.2057 116.17 75.2188 115.329C75.2065 114.489 75.4217 113.662 75.8416 112.934Z" fill="white"/>
<path d="M97.23 112.003V114.678H100.376V115.897H97.23V118.69H100.77V119.909H95.7354V110.784H100.77V112.003H97.23Z" fill="white"/>
<path d="M113.84 119.679C113.379 119.488 112.98 119.172 112.687 118.768C112.404 118.365 112.257 117.883 112.267 117.391H113.867C113.891 117.762 114.057 118.11 114.332 118.361C114.607 118.613 114.994 118.739 115.492 118.739C116.008 118.739 116.41 118.613 116.7 118.361C116.84 118.244 116.951 118.096 117.026 117.929C117.101 117.762 117.137 117.581 117.132 117.398C117.144 117.123 117.047 116.855 116.863 116.651C116.677 116.453 116.448 116.301 116.195 116.204C115.832 116.07 115.463 115.956 115.087 115.864C114.593 115.74 114.109 115.58 113.639 115.385C113.262 115.22 112.935 114.96 112.688 114.631C112.426 114.29 112.295 113.836 112.295 113.267C112.284 112.779 112.421 112.299 112.688 111.89C112.96 111.488 113.342 111.174 113.789 110.985C114.307 110.766 114.865 110.658 115.428 110.67C116.311 110.67 117.034 110.89 117.598 111.332C118.162 111.773 118.474 112.379 118.535 113.148H116.883C116.869 112.981 116.819 112.819 116.738 112.672C116.657 112.525 116.545 112.397 116.411 112.296C116.123 112.059 115.743 111.941 115.271 111.942C114.842 111.942 114.493 112.051 114.222 112.269C113.951 112.488 113.816 112.802 113.815 113.213C113.811 113.339 113.831 113.465 113.875 113.583C113.919 113.701 113.985 113.809 114.071 113.901C114.254 114.089 114.476 114.235 114.72 114.328C115.072 114.462 115.431 114.575 115.795 114.668C116.298 114.8 116.79 114.967 117.27 115.167C117.653 115.339 117.985 115.606 118.236 115.943C118.502 116.288 118.635 116.749 118.635 117.325C118.635 117.789 118.506 118.243 118.261 118.637C117.999 119.06 117.624 119.403 117.179 119.626C116.702 119.875 116.141 120.001 115.494 120.004C114.926 120.012 114.363 119.901 113.84 119.679Z" fill="white"/>
<path d="M118.99 99.7026H104.603V52.8555H118.99V99.7026ZM67.1385 99.7026H58.9784L34.9282 52.863H50.2898L62.9943 77.668L75.6987 52.863H91.1886L67.1385 99.7026Z" fill="white"/>
<path d="M118.99 0.00754857V48.6211H104.602V24.2464L92.0942 48.6136H76.5968L101.485 0H118.99V0.00754857ZM22.752 26.6544V0.00754857H24.4957L49.3837 48.6211H34.0222L22.752 26.6544Z" fill="#76797C"/>
<path d="M1.92334 82.8281L18.0926 82.8047L18.0964 85.4565L7.02247 85.4732L18.1039 90.3889V92.227L7.03757 97.1985L18.1115 97.1827V99.8345L1.94221 99.8587V96.997L14.6127 91.3015L1.9256 85.6672L1.92334 82.8281Z" fill="white"/>
<path d="M17.1851 75.2802C16.4945 76.5324 15.4743 77.5717 14.235 78.2853C12.9719 79.0241 11.5495 79.3945 9.96776 79.3965C8.38606 79.3985 6.9664 79.0324 5.70879 78.2981C4.47403 77.5844 3.45645 76.5486 2.7648 75.3013C2.05608 74.033 1.68929 72.6023 1.70044 71.1495C1.70044 69.6302 2.05121 68.2377 2.75273 66.972C3.43829 65.7251 4.45227 64.6897 5.68464 63.9782C6.94275 63.246 8.36241 62.8799 9.94361 62.8799C11.5248 62.8799 12.9482 63.2422 14.2139 63.9669C15.456 64.6711 16.4799 65.7041 17.173 66.9524C17.881 68.2156 18.2361 69.607 18.2381 71.1269C18.2532 72.5792 17.8903 74.0105 17.1851 75.2802ZM15.1975 68.2682C14.7016 67.426 13.9736 66.7446 13.1005 66.3055C12.1946 65.8339 11.1436 65.5989 9.94738 65.6004C8.75116 65.6019 7.70467 65.84 6.80788 66.3145C5.94244 66.7571 5.22396 67.4413 4.73954 68.284C4.26096 69.1219 4.02217 70.0761 4.02317 71.1465C4.02418 72.2169 4.26599 73.1703 4.7486 74.0067C5.23496 74.8478 5.95507 75.5296 6.82147 75.9694C7.72178 76.4414 8.76928 76.6764 9.96398 76.6744C11.1587 76.6724 12.209 76.4341 13.1148 75.9595C13.9867 75.5182 14.7128 74.8346 15.2058 73.9908C15.6934 73.1519 15.9363 72.1978 15.9342 71.1284C15.9322 70.059 15.6861 69.1056 15.196 68.2682H15.1975Z" fill="white"/>
<path d="M2.86297 49.663C3.48752 48.4017 4.47419 47.3553 5.69675 46.6579C6.92869 45.9498 8.36672 45.5948 10.0108 45.5928C11.6549 45.5908 13.0824 45.9415 14.2932 46.6451C15.4994 47.3441 16.4691 48.3877 17.0779 49.6419C17.7236 50.9367 18.0477 52.4447 18.0502 54.1658L18.0577 59.4499L1.88843 59.4733L1.88088 54.1892C1.87786 52.4681 2.20522 50.9594 2.86297 49.663ZM14.3445 49.8208C13.3194 48.8143 11.8761 48.3111 10.0146 48.3111C8.13799 48.3111 6.67304 48.8173 5.61975 49.8299C4.56645 50.8424 4.04132 52.2932 4.04434 54.1824V56.8116L15.8867 56.7943L15.8822 54.1651C15.8822 52.2754 15.3696 50.8273 14.3445 49.8208Z" fill="white"/>
<path d="M3.99917 39.5063L8.74578 39.4988L8.73747 33.9127H10.9009L10.9092 39.4988L15.8649 39.4912L15.8551 33.21H18.0193L18.0322 42.1439L1.8395 42.1673L1.82666 33.2341L3.99011 33.2303L3.99917 39.5063Z" fill="white"/>
<path d="M18.0003 20.7338L11.5379 24.4659V26.4897L18.0056 26.4799L18.0101 29.1325L1.84082 29.1559L1.83252 23.5699C1.83252 22.3289 2.04791 21.2776 2.47869 20.416C2.90947 19.5545 3.49021 18.9101 4.22093 18.4828C4.96186 18.0516 5.80572 17.8291 6.66292 17.8389C7.69412 17.8298 8.70126 18.1503 9.53747 18.7538C10.3995 19.3653 10.9866 20.3066 11.2986 21.5778L17.9928 17.5664L18.0003 20.7338ZM9.42424 26.495L9.41971 23.5638C9.41971 22.5714 9.17035 21.8234 8.67163 21.3196C8.17291 20.8159 7.50562 20.5642 6.66972 20.5647C5.83283 20.5647 5.17861 20.8139 4.70707 21.3121C4.23552 21.8103 4 22.5629 4.0005 23.5699L4.00503 26.5018L9.42424 26.495Z" fill="white"/>
<path d="M17.9703 0.331055V2.98291L5.9075 10.9845L17.9854 10.9672V13.619L1.7927 13.6432V10.9906L13.8321 2.98895L1.78139 3.00706L1.77686 0.35521L17.9703 0.331055Z" fill="white"/>
</svg>
