<svg width="193" height="16" viewBox="0 0 193 16" fill="none" xmlns="http://www.w3.org/2000/svg">
<path fill-rule="evenodd" clip-rule="evenodd" d="M27.3675 16C22.9591 16 19.3563 12.6883 19.3563 7.98883C19.3563 3.31167 22.9591 0 27.3675 0C31.8205 0 35.3563 3.31167 35.3563 7.98883C35.3563 12.6883 31.7982 16 27.3675 16ZM27.3675 13.2028C30.187 13.2028 32.134 11.1665 32.134 7.98883C32.134 4.81117 30.187 2.81954 27.3675 2.81954C24.5256 2.81954 22.5787 4.81117 22.5787 7.98883C22.5787 11.1665 24.5256 13.2028 27.3675 13.2028Z" fill="#000000"/>
<path d="M0 0.224118H3.55812L8.52563 11.8381L13.4931 0.224118H17.0289V15.8437H13.8959V5.68376L9.71167 15.8437H7.33959L3.133 5.68376V15.8429H0V0.224118Z" fill="#000000"/>
<path fill-rule="evenodd" clip-rule="evenodd" d="M43.1442 15.8429C48.134 15.8429 51.3787 12.7777 51.3787 8.05584C51.3787 3.31167 48.134 0.224118 43.1442 0.224118H37.6837V15.8429H43.1442ZM48.1794 8.05584C48.1794 11.3005 46.3218 13.1805 43.0325 13.1805H40.8175V2.86421H43.0325C46.3218 2.86421 48.1794 4.81117 48.1794 8.05584Z" fill="#000000"/>
<path d="M56.8614 2.75254V6.66878H62.12V9.15254H56.8614V13.2921H62.7916V15.8429H53.7292V0.201781H62.7924V2.75254H56.8614Z" fill="#000000"/>
<path fill-rule="evenodd" clip-rule="evenodd" d="M77.1358 5.01295C77.1358 2.39442 75.2558 0.224118 71.4967 0.224118H65.6327V15.8437H68.7657V9.75711H70.2429L73.6893 15.8437H77.3144L73.5776 9.51066C76.0837 8.83986 77.1358 6.91524 77.1358 5.01295ZM68.7665 2.81954H71.385C73.1302 2.81954 73.9134 3.69213 73.9134 5.07918C73.9134 6.48934 73.1302 7.40659 71.385 7.40659H68.7665V2.81954Z" fill="#000000"/>
<path d="M93.3375 0.201781V15.8437H90.2046L83.1106 5.12462V15.8437H79.9776V0.201781H83.1106L90.2046 10.9431V0.201781H93.3375Z" fill="#000000"/>
<path d="M100.163 11.8157C100.251 14.2094 102.278 16 105.361 16C108.621 16 110.317 13.8513 110.316 11.7264C110.316 8.63371 107.926 7.96881 105.687 7.34584C103.714 6.79675 101.858 6.28023 101.858 4.1627C101.858 2.34975 103.356 1.34316 105.162 1.36549C107.298 1.38783 108.333 2.73021 108.51 3.82691H110.184C109.92 1.67894 108.158 0.0231084 105.228 0.0231084C102.254 0.0231084 100.294 1.79062 100.294 4.20737C100.294 7.32959 102.675 7.97667 104.91 8.58428C106.888 9.12204 108.752 9.6289 108.752 11.7934C108.752 13.4046 107.497 14.68 105.36 14.68C102.871 14.68 101.925 13.1135 101.792 11.8157H100.163Z" fill="#000000"/>
<path fill-rule="evenodd" clip-rule="evenodd" d="M117.939 9.17487H114.833V15.8437H113.291V0.20101H117.939C121.507 0.20101 123.137 2.12563 123.137 4.69872C123.136 7.22791 121.551 9.17487 117.939 9.17487ZM117.939 7.83172C120.538 7.83172 121.551 6.62334 121.551 4.69872C121.551 2.68476 120.537 1.52106 117.939 1.52106H114.833V7.83172H117.939Z" fill="#000000"/>
<path fill-rule="evenodd" clip-rule="evenodd" d="M127.63 12.1284H134.634L135.977 15.8429H137.607L132.012 0.40279H130.273L124.656 15.8429H126.286L127.63 12.1284ZM128.092 10.8307L131.132 2.37208L134.171 10.8307H128.092Z" fill="#000000"/>
<path fill-rule="evenodd" clip-rule="evenodd" d="M148.995 12.1284H141.991L140.647 15.8429H139.017L144.634 0.40279H146.374L151.968 15.8429H150.338L148.995 12.1284ZM145.493 2.37208L142.453 10.8307H148.533L145.493 2.37208Z" fill="#000000"/>
<path d="M168.357 4.7665C167.256 1.76751 164.701 0.0223375 161.265 0.0223375C156.991 0.0223375 153.732 3.31167 153.732 8.01117C153.732 12.7107 156.992 15.9777 161.265 15.9777C164.7 15.9777 167.256 14.2317 168.357 11.2782H166.551C165.692 13.3145 163.885 14.6122 161.265 14.6122C157.894 14.6122 155.317 12.0838 155.317 8.01117C155.317 3.91625 157.894 1.38782 161.265 1.38782C163.885 1.38782 165.692 2.68554 166.551 4.7665H168.357Z" fill="#000000"/>
<path d="M179.458 1.47716H172.96V7.31802H178.797V8.61573H172.96V14.5459H179.458V15.8436H171.418V0.178672H179.458V1.47716Z" fill="#000000"/>
<path d="M181.969 11.8157C182.057 14.2094 184.084 16 187.167 16C190.427 16 192.123 13.8513 192.122 11.7264C192.122 8.63371 189.732 7.96881 187.493 7.34584C185.52 6.79675 183.664 6.28023 183.664 4.1627C183.664 2.34975 185.162 1.34316 186.968 1.36549C189.104 1.38783 190.139 2.73021 190.316 3.82691H191.99C191.726 1.67894 189.964 0.0231084 187.034 0.0231084C184.06 0.0231084 182.1 1.79062 182.1 4.20737C182.1 7.32959 184.481 7.97667 186.716 8.58428C188.694 9.12204 190.558 9.6289 190.558 11.7934C190.558 13.4046 189.303 14.68 187.166 14.68C184.677 14.68 183.731 13.1135 183.598 11.8157H181.969Z" fill="#000000"/>
</svg>
