<svg width="49" height="48" viewBox="0 0 49 48" fill="none" xmlns="http://www.w3.org/2000/svg">
<path d="M24.4996 0C23.9236 0 23.4561 0.467506 23.4561 1.0435V30.2606C23.4561 30.8366 23.9236 31.3041 24.4996 31.3041C25.0755 31.3041 25.5431 30.8365 25.5431 30.2605V1.0435C25.5431 0.467506 25.0755 0 24.4996 0Z" fill="black"/>
<path d="M47.4557 20.8687H39.108C38.532 20.8687 38.0645 21.3362 38.0645 21.9122C38.0645 22.4881 38.532 22.9557 39.108 22.9557H47.4557C48.0317 22.9557 48.4992 22.4881 48.4992 21.9122C48.4992 21.3362 48.0317 20.8687 47.4557 20.8687Z" fill="black"/>
<path d="M30.7615 20.8687H18.2398C17.6638 20.8687 17.1963 21.3362 17.1963 21.9122C17.1963 22.4881 17.6638 22.9557 18.2398 22.9557H30.7615C31.3375 22.9557 31.805 22.4881 31.805 21.9122C31.805 21.3362 31.3375 20.8687 30.7615 20.8687Z" fill="black"/>
<path d="M9.89121 20.8687H1.5435C0.967506 20.8687 0.5 21.3362 0.5 21.9122C0.5 22.4881 0.967506 22.9557 1.5435 22.9557H9.89121C10.4672 22.9557 10.9347 22.4881 10.9347 21.9122C10.9347 21.3362 10.4672 20.8687 9.89121 20.8687Z" fill="black"/>
<path d="M24.4996 37.5654C23.9236 37.5654 23.4561 38.0329 23.4561 38.6089V46.9566C23.4561 47.5326 23.9236 48.0001 24.4996 48.0001C25.0755 48.0001 25.5431 47.5326 25.5431 46.9566V38.6089C25.5431 38.0329 25.0755 37.5654 24.4996 37.5654Z" fill="black"/>
<path d="M47.4565 0H1.54351C0.967511 0 0.5 0.467506 0.5 1.0435V30.2606C0.5 30.8345 0.967511 31.304 1.54351 31.304H3.63043C4.20643 31.304 4.67394 30.8365 4.67394 30.2605C4.67394 29.6846 4.20643 29.2171 3.63043 29.2171H2.58692V2.0869H46.413V45.9126H2.58692V39.6518H3.63043C4.20643 39.6518 4.67394 39.1843 4.67394 38.6083C4.67394 38.0323 4.20643 37.5649 3.63043 37.5649H1.54351C0.967511 37.5649 0.5 38.0324 0.5 38.6084V46.9561C0.5 47.5321 0.967511 47.9996 1.54351 47.9996H47.4565C48.0325 47.9996 48.5 47.5321 48.5 46.9561V1.0435C48.5 0.467506 48.0325 0 47.4565 0Z" fill="black"/>
<path d="M26.5875 29.2168H22.4136C21.8376 29.2168 21.3701 29.6843 21.3701 30.2603C21.3701 30.8363 21.8376 31.3037 22.4136 31.3037H26.5875C27.1635 31.3037 27.631 30.8362 27.631 30.2602C27.631 29.6842 27.1635 29.2168 26.5875 29.2168Z" fill="black"/>
<path d="M26.5875 37.5654H22.4136C21.8376 37.5654 21.3701 38.0329 21.3701 38.6089C21.3701 39.1849 21.8376 39.6524 22.4136 39.6524H26.5875C27.1635 39.6524 27.631 39.1849 27.631 38.6089C27.631 38.0329 27.1635 37.5654 26.5875 37.5654Z" fill="black"/>
<path d="M9.89116 18.7827C9.31516 18.7827 8.84766 19.2502 8.84766 19.8262V24.0001C8.84766 24.576 9.31516 25.0435 9.89116 25.0435C10.4672 25.0435 10.9347 24.576 10.9347 24V19.8261C10.9347 19.2502 10.4672 18.7827 9.89116 18.7827Z" fill="black"/>
<path d="M18.2398 18.7827C17.6638 18.7827 17.1963 19.2502 17.1963 19.8262V24.0001C17.1963 24.5761 17.6638 25.0436 18.2398 25.0436C18.8158 25.0436 19.2833 24.576 19.2833 24V19.8261C19.2833 19.2502 18.8158 18.7827 18.2398 18.7827Z" fill="black"/>
<path d="M30.7603 18.7827C30.1843 18.7827 29.7168 19.2502 29.7168 19.8262V24.0001C29.7168 24.5761 30.1843 25.0436 30.7603 25.0436C31.3363 25.0436 31.8038 24.576 31.8038 24V19.8261C31.8038 19.2502 31.3363 18.7827 30.7603 18.7827Z" fill="black"/>
<path d="M39.108 18.7827C38.532 18.7827 38.0645 19.2502 38.0645 19.8262V24.0001C38.0645 24.5761 38.532 25.0436 39.108 25.0436C39.6839 25.0436 40.1515 24.5761 40.1515 24.0001V19.8262C40.1514 19.2502 39.6839 18.7827 39.108 18.7827Z" fill="black"/>
</svg>
