<svg width="34" height="24" viewBox="0 0 34 24" fill="none" xmlns="http://www.w3.org/2000/svg">
<path d="M20.9834 14.7577C20.9834 10.3191 22.0606 6.84414 24.215 4.33282C25.8559 2.44592 27.9883 1.04534 30.6122 0.131069C32.0112 -0.356384 33.3787 0.755423 33.3787 2.22296C33.3787 3.24258 32.6939 4.11907 31.7581 4.54592C29.6579 5.50386 28.1912 6.9367 27.3581 8.84444C27.2887 8.9921 27.2242 9.13915 27.1646 9.2856C26.4643 11.0059 28.0772 12.48 29.9516 12.48C31.9665 12.48 33.6 14.0963 33.6 16.09V18.24C33.6 21.4212 30.9937 24 27.7787 24H27.2917C23.8077 24 20.9834 21.2054 20.9834 17.7582V14.7577ZM0 14.7577C0 10.3775 1.04769 6.91715 3.14308 4.37662C4.75256 2.45233 6.91232 1.03063 9.62236 0.111534C11.0287 -0.365434 12.3953 0.752647 12.3953 2.22368C12.3953 3.24416 11.7142 4.12401 10.7764 4.54853C8.64777 5.51203 7.16579 6.9148 6.33043 8.75684C6.26262 8.90968 6.19985 9.06324 6.14214 9.21751C5.4861 10.971 7.13345 12.48 9.02317 12.48C11.0078 12.48 12.6166 14.0719 12.6166 16.0356V18.24C12.6166 21.4212 10.0103 24 6.79526 24H6.3083C2.82432 24 0 21.2054 0 17.7582V14.7577Z" fill="url(#paint0_linear)"/>
<defs>
<linearGradient id="paint0_linear" x1="0" y1="12" x2="31.2282" y2="12" gradientUnits="userSpaceOnUse">
<stop stop-color="#FFD542"/>
<stop offset="1" stop-color="#E8A111"/>
</linearGradient>
</defs>
</svg>
