<svg width="213" height="92" viewBox="0 0 213 92" fill="none" xmlns="http://www.w3.org/2000/svg">
<path d="M205.797 78.4443C205.356 77.9845 204.855 78.177 204.731 78.8008C204.608 79.4247 204.516 80.0548 204.389 80.6796C204.288 81.1769 203.957 81.291 203.608 80.971C203.338 80.7246 202.993 80.578 202.63 80.5552C202.267 80.5324 201.907 80.6347 201.609 80.8454C201.151 81.0722 200.64 81.169 200.132 81.1257C199.624 81.0824 199.136 80.9005 198.722 80.5994C197.716 79.9615 196.511 79.7266 195.342 79.9408C192.998 80.3543 190.665 80.8596 188.325 81.3177C184.674 82.1191 180.955 82.5667 177.22 82.6546C174.12 82.66 171.227 82.053 168.735 80.0584C167.839 79.4322 167.141 78.5571 166.725 77.5386C166.309 76.5202 166.194 75.4019 166.393 74.3188C166.648 72.825 167.079 71.3616 167.423 69.883C167.554 69.3188 167.659 68.7493 167.775 68.1798L167.475 68.064C166.617 69.7012 165.69 71.3063 164.919 72.9828C164.207 74.4517 163.998 76.1182 164.324 77.7207C164.807 79.619 165.887 81.3072 167.402 82.5307C168.916 83.7542 170.783 84.4467 172.721 84.5039C176.977 84.5931 181.168 83.8997 185.343 83.2027C188.555 82.668 191.72 81.8596 194.918 81.25C196.375 80.9728 197.876 80.7741 199.184 81.8534C199.385 82.0035 199.633 82.0739 199.881 82.0512C200.658 81.9947 201.427 81.8512 202.173 81.6234C202.806 81.3873 203.224 81.3561 203.703 81.9015C204.214 82.4879 204.882 82.258 205.025 81.4853C205.095 81.1074 205.08 80.7126 205.121 80.3267C205.209 79.5112 205.396 79.3971 206.021 79.8668C206.88 80.5207 207.895 80.9319 208.963 81.0583C210.031 81.1847 211.113 81.0217 212.098 80.586L213 79.308C210.444 80.2242 207.975 80.7046 205.797 78.4443Z" fill="black"/>
<path d="M44.5256 61.1567C44.1717 60.8477 43.7902 60.5726 43.386 60.335L43.215 60.5043C43.3754 60.9169 43.5226 61.3349 43.698 61.7405C44.4969 63.6363 44.7711 65.716 44.4913 67.7573C44.203 70.0621 43.5892 72.3131 42.6686 74.4416C41.7509 76.8765 40.3226 79.0814 38.482 80.905C37.9558 81.4605 37.293 81.8647 36.5616 82.0763C35.8302 82.2878 35.0564 82.2991 34.3192 82.1091C33.4942 81.8254 32.7097 81.4328 31.9862 80.9415C31.719 80.7499 31.4008 80.644 31.0733 80.6376C30.7457 80.6312 30.4238 80.7247 30.1494 80.9059C29.8418 81.0939 29.5563 81.3221 29.268 81.5351C29.0124 81.724 28.7806 81.9397 28.5197 82.1171C28.1404 82.3675 27.6998 82.5067 27.2469 82.5193C26.794 82.5319 26.3465 82.4174 25.954 82.1884C25.4232 81.9092 24.8309 81.7709 24.2328 81.7864C23.6346 81.802 23.0502 81.971 22.5343 82.2775C22.1817 82.4754 21.7983 82.6162 21.4361 82.798C20.1315 83.4408 18.6802 83.7178 17.2337 83.6001C15.4427 83.4673 13.6614 83.1723 11.8837 82.8978C10.0494 82.5127 8.16359 82.4461 6.30717 82.7009C5.02916 82.9433 3.77936 83.3301 2.50048 83.5698C1.68168 83.724 0.834668 83.7285 0 83.7998L0.0264417 84.0431C1.4014 83.8791 2.77635 83.708 4.15395 83.5538C5.69196 83.3844 7.25201 82.9923 8.7671 83.1206C11.1081 83.3902 13.4344 83.7781 15.7371 84.2828C17.454 84.7326 19.2744 84.53 20.8535 83.7133C21.4185 83.3907 22.0389 83.1697 22.6321 82.8969C23.1472 82.634 23.7202 82.5087 24.2967 82.5328C24.8732 82.557 25.4341 82.7299 25.9258 83.0351C26.4637 83.3778 27.0897 83.5522 27.7253 83.5364C28.3608 83.5205 28.9776 83.3151 29.4981 82.946C29.9054 82.6859 30.3685 82.5287 30.8485 82.4876C31.3285 82.4465 31.8112 82.5227 32.2559 82.7098C34.8313 83.5823 37.3759 83.314 39.4515 81.5422C40.813 80.2533 42.0254 78.8121 43.0652 77.2464C44.8685 74.8115 46.3739 72.1912 46.8146 69.1075C47.2421 66.1192 46.6736 63.3919 44.5256 61.1567Z" fill="black"/>
<path d="M104.941 41.2822C104.655 40.7234 104.338 40.1833 104.002 39.5755C103.685 40.2231 103.539 40.942 103.576 41.6634C103.612 42.3847 103.832 43.0845 104.212 43.6957C104.677 44.5379 105.148 45.3793 105.552 46.2545C105.706 46.7096 105.815 47.1793 105.876 47.6564C104.256 47.0798 102.994 46.2536 102.55 44.7153C102.007 42.8356 101.679 40.8909 101.291 38.9676C101.12 38.1209 100.987 37.2662 100.784 36.4213C100.646 35.8569 100.369 35.3374 99.9766 34.9123C99.5845 34.4871 99.0914 34.1706 98.5442 33.9927C99.558 37.1018 100.112 40.3453 100.188 43.6182C100.25 45.0003 100.599 46.3538 101.21 47.5915C101.822 48.8291 102.683 49.9233 103.739 50.8034C105.012 51.8976 105.849 53.4219 106.094 55.093C106.237 56.1429 105.653 57.2828 104.97 58.3835C104.779 58.6758 104.585 58.9768 104.39 59.2863C104.111 59.715 103.841 60.133 103.62 60.5278C100.725 65.2889 97.7492 71.3218 96.8387 76.0748C95.5678 78.3983 93.7803 81.1175 92.1172 81.1175H91.9938C91.3768 81.056 91.0692 80.4045 91.0692 79.3109C91.0692 77.2557 92.1789 73.7041 94.058 70.2799C94.4898 69.5321 94.8274 68.9091 95.135 68.4083C95.185 68.3232 95.2066 68.2242 95.1967 68.1257C95.1967 67.5339 94.3039 66.878 93.6261 66.878C93.5052 66.87 93.3844 66.8946 93.2761 66.9493C93.1677 67.0039 93.0756 67.0866 93.0091 67.189C91.6299 69.4508 90.6207 71.9228 90.0204 74.5098C88.8807 75.9429 85.7078 79.6505 83.8295 79.6505H83.7669C83.3668 79.6184 83.2743 79.3679 83.2743 79.0266C83.2904 78.7759 83.3199 78.5263 83.3624 78.2788C83.7943 75.3502 85.8884 72.2353 87.4599 69.9305C87.4938 69.8735 87.5145 69.8095 87.5207 69.7434C87.5207 69.1836 86.4428 68.435 85.7968 68.435C85.7201 68.4328 85.6439 68.4486 85.5744 68.4813C85.5048 68.5139 85.4436 68.5624 85.3957 68.6231C84.639 69.7142 83.9795 70.8712 83.425 72.0802C83.16 72.6594 82.931 73.2547 82.7393 73.8627C82.1505 73.9592 81.5553 74.0095 80.9589 74.0133C79.5128 74.0322 78.0845 73.6899 76.8005 73.0169C77.4411 71.42 77.8054 69.7236 77.8776 68.0019C77.8776 65.821 76.923 64.9181 75.8751 64.9181C74.5821 64.9181 73.1648 66.2889 73.1648 68.4065L73.1957 68.8735C71.2796 70.2061 69.6462 71.9124 68.3912 73.8921C66.8118 74.4349 64.8886 75.1176 62.8121 75.9135C61.7033 70.8672 56.5605 66.1989 54.1252 61.2729C53.2023 59.403 52.6974 57.3507 52.6462 55.2614C52.6462 53.1724 53.2632 51.1492 54.9255 49.7161C57.2365 47.6912 60.7488 46.7563 63.6741 46.7563C66.075 46.7563 68.1101 47.3801 68.698 48.5325C68.8591 48.8618 68.9435 49.224 68.9447 49.5913C68.8886 50.469 68.636 51.3223 68.2062 52.0868C66.2903 55.9236 63.4641 59.2205 59.9802 61.6829L60.3195 62.182C63.9037 59.6803 66.8065 56.3055 68.7597 52.3693C69.213 51.5128 69.4759 50.5666 69.53 49.5967C69.5313 49.1329 69.4257 48.6751 69.2215 48.2598C68.5164 46.8579 66.2953 46.1413 63.6767 46.1413C60.5663 46.1413 56.9007 47.1689 54.528 49.2607C53.8486 49.8372 53.2658 50.521 52.8022 51.2856C51.7753 52.9472 51.241 54.8717 51.2625 56.8309C51.2625 60.0706 52.5563 63.4039 54.4046 66.427C56.7455 70.3218 59.6418 73.7789 60.1962 76.9562C55.0207 79.105 47.4161 82.5943 44.4547 86.9863C44.0274 87.5763 43.7821 88.2808 43.7496 89.0113C43.7382 89.2895 43.791 89.5665 43.9038 89.8205C44.5208 90.9105 45.6296 91.1289 46.8626 91.1289L47.6329 91.0977C55.0568 91.0977 63.0659 84.899 63.0659 77.9518C63.0552 77.4822 63.014 77.0139 62.9425 76.5498C64.7467 75.8591 66.4469 75.2397 67.9153 74.7272C67.0382 76.1964 66.5271 77.859 66.4258 79.572C66.4258 80.8198 66.8576 81.6602 67.7205 81.8144L67.843 81.8456C68.0829 81.9204 68.3316 81.9624 68.5825 81.9704C69.0509 81.9641 69.5128 81.8581 69.9381 81.6593C72.7717 80.4116 74.9619 77.7646 76.5916 73.623C77.9522 74.2976 79.4507 74.6389 80.9659 74.6194C81.4989 74.6159 82.0311 74.5784 82.5595 74.5071C82.2732 75.5361 82.1212 76.5986 82.1073 77.6674C82.0706 78.3068 82.176 78.9463 82.4158 79.5391C82.5094 79.7786 82.6836 79.9771 82.9076 80.0997C83.1713 80.2128 83.4533 80.2763 83.7396 80.2868H83.833C85.8347 80.2868 88.5775 77.2334 89.8397 75.7415C89.7638 76.3302 89.7226 76.9231 89.7163 77.5168C89.7163 79.5105 90.179 81.6941 91.7814 81.6941H91.8122C91.8122 81.6941 91.9003 81.6941 91.9356 81.7253H92.1216C93.7706 81.7253 95.3421 79.818 96.6078 77.7503C96.5778 78.0988 96.5584 78.4384 96.5584 78.7664C96.5194 79.7996 96.7313 80.8269 97.1754 81.7583C97.2781 82.0169 97.4367 82.2491 97.6395 82.4378C97.8423 82.6265 98.0843 82.7671 98.3476 82.8492C98.5826 82.9454 98.8328 82.9979 99.0862 83.0042C99.8938 82.9424 100.656 82.6012 101.244 82.0381C103.216 80.3875 104.848 78.3314 107.466 73.8146L106.912 73.5321C104.356 77.9553 102.752 79.9811 100.843 81.5381C100.375 82.0204 99.7519 82.3183 99.0862 82.3786C98.9151 82.3783 98.7457 82.3431 98.5883 82.2752C98.425 82.2046 98.2795 82.098 98.1622 81.9633C98.0449 81.8285 97.9589 81.6689 97.9105 81.4963C97.7158 80.9362 97.6212 80.3456 97.6311 79.7521C97.6311 74.221 104.033 64.1989 107.243 59.4138C107.501 59.0573 107.746 58.7008 107.979 58.3238L108.045 58.2275C108.099 58.1482 108.147 58.0637 108.186 57.9753C108.575 57.292 108.881 56.5632 109.096 55.8051C109.938 52.249 109.116 50.0289 108.053 47.5299C107.144 45.3828 105.991 43.3508 104.941 41.2822ZM58.228 83.6023C55.1176 87.9017 49.5103 90.3312 46.4299 90.3312C45.136 90.3312 44.3048 89.8945 44.3048 88.9943C44.3665 88.3796 44.6018 87.7957 44.9826 87.3125C47.7863 83.1005 55.1793 79.7138 60.2931 77.5908L60.324 78.1202C60.3222 80.1442 59.3976 82.0132 58.2289 83.6023H58.228ZM69.686 81.0791C69.3458 81.2324 68.9794 81.3171 68.6072 81.3287C68.4081 81.3331 68.2098 81.3011 68.0219 81.2342C67.8482 81.1831 67.6989 81.0693 67.6025 80.9144C67.506 80.7596 67.469 80.5744 67.4984 80.3938C67.5017 80.1845 67.5221 79.9758 67.5592 79.7699C67.9602 76.7486 71.5334 73.1354 74.0294 71.2977C74.5479 72.1137 75.2455 72.7978 76.0681 73.2968C74.4948 77.3439 72.3989 79.8982 69.6886 81.08L69.686 81.0791ZM76.2778 72.7014C75.5647 72.2688 74.9639 71.6702 74.5257 70.9554C74.7416 70.7995 74.9875 70.7059 74.9875 70.3013V70.1774C74.9434 69.8402 74.8078 69.522 74.5957 69.2581C74.3837 68.9941 74.1035 68.7947 73.7862 68.6819V68.4341C73.7862 66.7211 74.895 65.5375 75.8513 65.5375C76.6216 65.5375 77.2994 66.2505 77.2994 67.9983C77.2251 69.6129 76.88 71.2029 76.2787 72.7005L76.2778 72.7014Z" fill="black"/>
<path d="M107.266 44.4969C108.242 43.775 109.049 42.8437 109.629 41.7697C110.19 40.6313 110.691 39.463 111.127 38.2698C111.391 37.6459 111.626 36.7947 111.861 36.1566C112.265 34.9311 111.731 33.1264 111.731 33.1264C111.561 32.476 111.303 31.8529 110.962 31.2752C110.59 30.6202 110.041 30.0868 109.378 29.7383C108.716 29.3898 107.968 29.2408 107.224 29.3091C106.597 29.359 106.134 29.6772 106.138 30.2895C106.296 30.3162 106.463 30.3359 106.625 30.3742C108.648 30.8528 109.339 31.5185 109.577 33.4784C109.647 33.895 109.625 34.3222 109.511 34.7289C109.397 35.1355 109.194 35.5113 108.918 35.8286C108.904 35.8483 108.888 35.8671 108.871 35.8848C108.667 36.0784 108.403 36.1954 108.124 36.216C107.845 36.2366 107.567 36.1596 107.337 35.998C106.655 35.4445 106.216 34.6413 106.115 33.7627C106.046 33.1656 106.075 32.556 106.05 31.9517C106.045 31.5995 105.928 31.2585 105.716 30.9788C105.504 30.6991 105.209 30.4956 104.874 30.3982C104.906 31.0255 104.841 31.6538 104.682 32.261C104.498 33.0291 104.48 33.8284 104.63 34.6042C104.779 35.38 105.093 36.1139 105.55 36.7555C106.119 37.5104 106.603 38.3271 106.992 39.1904C107.6 40.628 107.773 42.2151 107.49 43.7518C107.435 44.006 107.361 44.2552 107.266 44.4969Z" fill="black"/>
<path d="M132.3 19.263C132.389 19.5319 132.561 19.7646 132.791 19.9265C133.022 20.0884 133.297 20.1707 133.577 20.1613C133.417 20.0446 133.251 19.9369 133.08 19.8387C132.939 19.7668 132.82 19.658 132.735 19.5238C132.65 19.3896 132.602 19.2347 132.596 19.0754C132.591 18.9162 132.627 18.7583 132.703 18.6182C132.778 18.4781 132.889 18.361 133.024 18.279C133.794 17.7508 134.704 17.4689 135.634 17.4701C136.565 17.4712 137.474 17.7552 138.243 18.2853C137.899 18.6578 137.573 19.0491 137.208 19.3984C136.5 20.1246 135.751 20.8077 134.963 21.4439C134.417 21.8056 133.815 22.0728 133.182 22.2344C133.032 22.2545 132.879 22.2326 132.741 22.1711C132.622 22.1145 132.527 22.0163 132.474 21.8947C132.421 21.773 132.413 21.636 132.452 21.5089C132.495 21.3865 132.551 21.2693 132.619 21.1595C132.728 20.9947 132.862 20.8488 133.017 20.7273C132.531 20.9031 132.033 21.0439 131.527 21.1489C130.528 21.2888 129.513 21.3316 128.51 21.4528C126.7 21.5717 124.972 22.257 123.564 23.4135C123.219 23.6622 122.929 23.9808 122.713 24.3491C122.496 24.7174 122.358 25.1272 122.306 25.5525C122.277 26.0962 122.483 26.3047 123.063 26.3475C122.458 26.1523 122.358 25.606 122.729 25.0623C124.06 23.082 126.087 22.516 128.308 22.2237C128.094 22.7317 127.893 23.1622 127.733 23.6034C127.458 24.3467 127.235 25.1105 126.94 25.8431C126.618 26.6594 126.073 27.3659 125.368 27.8796C125.193 28.0422 124.964 28.1333 124.726 28.1352C124.487 28.1372 124.257 28.0499 124.079 27.8903C123.937 27.7056 123.851 27.4837 123.831 27.251C123.81 27.0183 123.856 26.7845 123.963 26.5774C124.098 26.3386 124.246 26.0837 124.404 25.8538C124.204 26.0535 124.018 26.266 123.845 26.4901C123.39 27.1737 123.405 27.8181 123.845 28.2601C124.135 28.4863 124.489 28.6136 124.855 28.6237C125.221 28.6338 125.581 28.5261 125.883 28.3163C126.69 27.7444 127.299 26.9308 127.625 25.9901C127.877 25.3796 128.086 24.7486 128.32 24.1328C128.599 23.3903 128.804 22.5606 129.59 22.1996C130.376 21.8387 131.19 21.6043 132.008 21.3084C132.12 22.639 132.52 22.9242 133.742 22.6221C133.889 22.5847 134.031 22.5401 134.174 22.4946C135.703 21.9419 137.034 20.9394 137.996 19.6159C138.173 19.3758 138.402 19.18 138.666 19.0437C139.149 18.7945 139.696 18.7029 140.233 18.7817L141.494 18.9421C141.43 18.8944 141.362 18.8509 141.292 18.812C140.213 18.2951 139.124 17.796 138.052 17.2612C136.476 16.4796 134.012 16.7693 132.805 17.9029C132.594 18.0515 132.434 18.261 132.344 18.5038C132.254 18.7466 132.239 19.0113 132.3 19.263Z" fill="black"/>
<path d="M124.412 25.8198L124.391 25.8537C124.398 25.8457 124.403 25.8376 124.41 25.8305L124.412 25.8198Z" fill="black"/>
<path d="M103.17 26.1645C103.706 25.1486 104.177 24.0993 104.581 23.0228C105.039 21.7082 105.912 20.583 107.067 19.8215C107.551 19.4642 108.017 19.0825 108.463 18.678C108.365 18.647 108.263 18.629 108.16 18.6245C105.548 19.1441 102.931 19.6593 100.572 20.9836C99.7383 21.4475 98.9562 22.0002 98.239 22.6325C98.124 22.734 98.0353 22.8623 97.9805 23.0063C97.9257 23.1504 97.9065 23.3058 97.9246 23.459C97.9426 23.6123 97.9974 23.7587 98.0841 23.8857C98.1709 24.0127 98.287 24.1164 98.4223 24.1877C98.6921 24.3447 99.0049 24.4095 99.3141 24.3724C99.6232 24.3353 99.9123 24.1983 100.138 23.9818C99.8928 24.055 99.6416 24.1072 99.3874 24.1378C98.9626 24.1485 98.5245 24.0807 98.3668 23.6119C98.209 23.1431 98.4999 22.8294 98.8956 22.6129C99.5707 22.2412 100.235 21.8455 100.923 21.505C102.41 20.7697 103.992 20.2492 105.622 19.9587C104.805 20.7322 104.211 21.7154 103.904 22.8036C103.596 23.6342 103.324 24.4836 102.943 25.2795C102.711 25.7677 102.381 26.2012 101.973 26.5522C101.753 26.7375 101.472 26.8322 101.186 26.8173C100.9 26.8024 100.63 26.6791 100.43 26.472C100.223 26.262 100.095 25.985 100.069 25.6893C100.042 25.3937 100.12 25.0981 100.287 24.8543C100.477 24.5433 100.705 24.2554 100.915 23.9569C100.559 24.1253 100.26 24.3967 100.056 24.7368C99.8518 25.0768 99.752 25.4704 99.769 25.8677C99.7801 26.2636 99.9462 26.6388 100.231 26.9109C100.515 27.183 100.895 27.3297 101.287 27.3186C101.38 27.3158 101.472 27.3045 101.563 27.2848C101.9 27.244 102.223 27.1208 102.503 26.9256C102.784 26.7304 103.012 26.4692 103.17 26.1645Z" fill="black"/>
<path d="M119.404 12.262C119.033 12.5557 118.737 12.9363 118.544 13.371C118.35 13.8058 118.264 14.2816 118.292 14.7575C118.319 15.0362 118.439 15.2973 118.633 15.4972C119.14 15.9642 120.538 15.8314 121.029 15.319C121.106 15.2397 121.148 15.1282 121.117 15.1746C120.619 15.3986 120.076 15.5027 119.531 15.4785C118.857 15.491 118.587 15.0266 118.732 14.3609C118.842 13.8262 119.097 13.333 119.469 12.9366C119.841 12.5403 120.314 12.2564 120.836 12.1167C121.9 11.8421 122.987 11.672 124.083 11.6087C124.831 11.5329 125.594 11.5873 126.383 11.5846C125.898 12.2085 125.429 12.7762 125.013 13.3752C124.435 14.2103 123.925 15.0979 123.325 15.9152C122.88 16.4177 122.297 16.7748 121.651 16.941L121.621 16.9464C121.492 16.9682 121.36 16.9572 121.236 16.9143C121.113 16.8713 121.001 16.7979 120.913 16.7006C120.824 16.6032 120.761 16.4851 120.729 16.3569C120.697 16.2286 120.696 16.0943 120.729 15.966C120.738 15.9259 120.749 15.8903 120.759 15.8617C120.589 15.9913 120.474 16.1806 120.436 16.3922C120.398 16.6037 120.44 16.822 120.554 17.0034C120.736 17.2406 120.992 17.4079 121.281 17.4775C121.569 17.547 121.873 17.5147 122.141 17.3858C123.151 17.0455 124.029 16.3903 124.648 15.5142C125.396 14.5249 125.86 13.3645 126.675 12.4331C127.223 11.918 127.557 11.4438 128.071 10.9991L128.985 10L128.179 10.3467C126.525 10.9902 124.786 10.8208 123.078 10.9349C121.736 10.9245 120.435 11.3947 119.404 12.262Z" fill="black"/>
<path d="M132.079 48.3673C133.094 48.7 134.131 48.9597 135.182 49.1445C135.88 49.2604 136.538 49.5515 137.096 49.991C137.654 50.4305 138.094 51.0045 138.376 51.6605C138.632 52.2246 138.871 52.6988 139.09 53.1676C139.078 52.8276 139.048 52.4885 139.002 52.1515C138.851 50.6881 138.737 49.435 138.59 47.9698C138.573 47.234 138.494 46.5011 138.353 45.7791C137.726 43.551 135.298 42.0867 133.347 42.9565C133.168 43.0413 133.01 43.1653 132.885 43.3195C132.759 43.4736 132.669 43.6541 132.621 43.8478C132.592 44.0411 132.632 44.2385 132.732 44.4056C132.832 44.5727 132.987 44.6989 133.17 44.7622C133.051 44.6455 132.972 44.4932 132.944 44.3277C132.917 44.1622 132.943 43.9921 133.018 43.8424C133.103 43.6928 133.22 43.5638 133.359 43.4643C133.499 43.3649 133.658 43.2974 133.826 43.2667C134.321 43.1963 134.825 43.2415 135.3 43.3988C135.775 43.5561 136.208 43.8213 136.565 44.174C138.189 45.6089 137.888 47.5144 137.813 49.3744C137.295 49.1068 136.757 48.8803 136.204 48.6971C135.077 48.4199 133.927 48.2318 132.788 47.9992C132.001 47.837 131.312 47.5331 131.076 46.6508C131.017 46.4945 130.996 46.3259 131.015 46.1596C131.035 45.9933 131.095 45.8345 131.189 45.697C131.284 45.5595 131.41 45.4476 131.558 45.371C131.705 45.2944 131.869 45.2555 132.034 45.2577C132.233 45.2372 132.434 45.231 132.726 45.2123C131.404 44.7497 130.562 45.3905 130.682 46.6802C130.718 47.0715 130.871 47.4425 131.121 47.7438C131.37 48.0452 131.705 48.2626 132.079 48.3673Z" fill="black"/>
<path d="M78.7201 12.4412C79.9753 13.3057 81.2983 14.0652 82.6757 14.7121C83.5513 15.0929 84.3041 15.7137 84.8492 16.5044C85.0016 16.7455 85.0995 17.0176 85.1361 17.3014C85.1727 17.5851 85.1469 17.8735 85.0608 18.1461C84.996 18.3976 84.8511 18.6205 84.6484 18.7803C84.4458 18.9402 84.1966 19.028 83.9396 19.0302C83.7081 19.0674 83.4709 19.0271 83.2641 18.9154C83.0572 18.8038 82.8921 18.6269 82.7938 18.4117C82.2851 17.4003 81.8377 16.3586 81.4541 15.2923L81.44 15.2843C81.6507 16.4135 81.827 17.5462 82.0861 18.6612C82.2535 19.3956 82.2174 19.7958 81.7785 20.0079C81.3898 20.195 80.9553 20.0159 80.6618 19.3127C80.3556 18.5801 80.1 17.827 79.8967 17.0587C79.6402 16.1479 79.3987 14.9197 79.1564 13.9973C79.4155 15.5311 79.501 17.1104 79.8051 18.6318C79.9144 19.2294 80.1274 19.8027 80.4344 20.3252C81.2497 21.4446 82.1381 21.0382 82.8018 19.8225C82.8441 19.7527 82.89 19.6852 82.9393 19.6202C83.0314 19.6291 83.1228 19.6451 83.2125 19.6683C83.5506 19.7857 83.9135 19.8106 84.2642 19.7405C84.6149 19.6704 84.9411 19.5077 85.2095 19.2689C85.478 19.0302 85.6793 18.7239 85.7929 18.3812C85.9066 18.0384 85.9286 17.6713 85.8566 17.3172C85.7775 16.799 85.576 16.3078 85.2691 15.8851C84.9623 15.4625 84.5591 15.1209 84.0939 14.8894C82.8265 14.2067 81.4885 13.672 80.1849 13.0552C79.6438 12.8012 79.1158 12.5205 78.4883 12.2041C78.6161 12.3351 78.6681 12.3904 78.7201 12.4412Z" fill="black"/>
<path d="M79.1475 13.9707L79.1536 13.993V13.9716L79.1475 13.9707Z" fill="black"/>
<path d="M109.83 16.772C109.725 17.0265 109.717 17.3117 109.809 17.5717C109.9 17.8316 110.085 18.0477 110.325 18.1775C109.768 17.6356 109.879 17.231 110.355 16.5331C111.227 15.2205 112.396 14.1371 113.765 13.3727C114.412 13.0162 115.093 12.7248 115.744 12.4129C115.531 13.4423 115.338 14.395 115.134 15.354C114.931 16.313 114.82 17.3049 114.137 18.091C113.624 18.681 112.985 18.9751 112.593 18.7612C112.153 18.5242 112.026 17.8192 112.375 17.0563C112.735 16.2746 113.18 15.5322 113.588 14.7738L113.575 14.764C112.985 15.3701 112.473 16.05 112.053 16.7871C111.826 17.1642 111.699 17.5939 111.685 18.0349C111.676 18.283 111.732 18.529 111.848 18.7479C111.915 18.8872 112.008 19.012 112.122 19.1151C112.236 19.2182 112.369 19.2975 112.513 19.3486C112.658 19.3996 112.81 19.4214 112.963 19.4127C113.116 19.404 113.265 19.3649 113.403 19.2978C114.014 19.0278 114.548 18.6059 114.954 18.0714C115.705 17.0384 115.775 15.7337 116.022 14.5153C116.022 14.5153 116.234 12.3291 117.625 11.1812L117.114 11.2943C117.08 11.3015 117.047 11.3104 117.014 11.3202C115.371 11.7836 113.824 12.5446 112.449 13.5661C111.275 14.3419 110.362 15.4598 109.83 16.772Z" fill="black"/>
<path d="M125.86 20.4904V20.4841C124.698 20.1392 123.555 19.707 122.373 19.4672C120.51 19.0929 118.777 19.7435 117.097 20.4583C116.356 20.8133 115.644 21.2285 114.968 21.6998C114.748 21.8503 114.558 22.0421 114.409 22.2648C114.225 22.4854 114.13 22.7685 114.144 23.0569C114.158 23.3454 114.279 23.6178 114.484 23.8192C114.837 24.1882 115.424 24.2087 116.103 23.8299C115.863 23.885 115.615 23.9004 115.369 23.8753C115.161 23.8587 114.967 23.7594 114.83 23.5992C114.694 23.439 114.626 23.2307 114.64 23.0197C114.65 22.8932 114.689 22.7709 114.756 22.6632C114.866 22.4759 115.009 22.3106 115.178 22.1757C116.349 21.3768 117.657 20.8047 119.035 20.4886C119.938 20.1962 120.89 20.091 121.834 20.1793C121.068 21.3959 120.321 22.6285 119.527 23.8272C118.987 24.657 117.907 25.6685 117.342 25.7389C117.228 25.7733 117.106 25.7607 117.001 25.7038C116.897 25.647 116.819 25.5506 116.785 25.4359V25.4288C116.675 25.1008 116.643 24.7511 116.692 24.4083C116.602 24.812 116.552 25.2237 116.541 25.6373C116.539 25.753 116.567 25.8673 116.623 25.968C116.679 26.0688 116.762 26.1522 116.861 26.2095C116.96 26.2668 117.073 26.2958 117.188 26.2935C117.302 26.2911 117.414 26.2575 117.511 26.1961C118.106 25.9304 118.646 25.5516 119.1 25.0803C119.844 24.238 120.529 23.3446 121.15 22.4065C121.767 21.5394 122.423 20.5474 123.74 20.3995C124.448 20.3323 125.161 20.3629 125.86 20.4904Z" fill="black"/>
<path d="M144.595 42.6651C144.133 41.5083 143.256 40.5709 142.139 40.0413C141.574 39.7406 140.918 39.6644 140.301 39.8279C139.683 39.9913 139.149 40.3825 138.802 40.9245C138.658 41.1189 138.585 41.3582 138.597 41.6008C138.609 41.8435 138.705 42.0743 138.867 42.2533C139.483 42.711 140.124 43.133 140.788 43.5171L139.632 42.5368C139.489 42.4285 139.36 42.3014 139.25 42.1589C139.128 41.9596 139.084 41.722 139.125 41.4916C139.166 41.2612 139.29 41.0545 139.473 40.9111C139.869 40.5197 140.402 40.3031 140.955 40.3089C141.509 40.3148 142.037 40.5426 142.424 40.9423L142.448 40.9673C143.84 42.1526 144.402 43.8193 145.061 45.5768C143.286 44.9672 141.852 45.0037 139.937 44.9422C139.4 44.9456 138.872 44.8097 138.402 44.5474C138.26 44.4657 138.147 44.341 138.08 44.1909C138.001 44.0003 137.992 43.7878 138.053 43.5908C138.114 43.3938 138.243 43.225 138.415 43.1143C138.574 43.0156 138.745 42.9369 138.923 42.8799C138.704 42.8507 138.481 42.8962 138.289 43.0091C138.098 43.122 137.949 43.296 137.866 43.5038C137.762 43.8571 137.793 44.237 137.954 44.5679C138.405 45.4057 139.257 45.4788 140.095 45.5617C141.435 45.6998 142.785 45.829 144.111 46.0616C145.031 46.2586 145.937 46.5119 146.826 46.8201L146.473 46.321C146.153 45.7747 145.863 45.3344 145.628 44.8674C145.266 44.1455 144.948 43.395 144.595 42.6651Z" fill="black"/>
<path d="M137.887 32.4597C137.627 32.6845 137.441 32.9837 137.352 33.3178C137.264 33.6519 137.278 34.0052 137.392 34.3313C137.519 34.6191 137.739 34.855 138.016 35.0006C138.293 35.1461 138.61 35.193 138.917 35.1334C138.99 35.1334 139.127 35.1058 139.269 35.0871C139.046 35.4739 138.745 35.8776 138.575 36.1851C138.468 36.335 138.395 36.506 138.358 36.6868C138.322 36.8676 138.324 37.0541 138.364 37.2341C138.54 37.7849 138.952 38.0701 139.739 37.9471C141.189 37.6151 142.542 36.9436 143.689 35.9863C144.471 35.4079 144.988 34.9445 146.069 35.2466C146.151 34.8519 146.116 34.4413 145.968 34.0668C145.82 33.6923 145.565 33.3706 145.236 33.1424C143.948 32.0759 142.338 31.488 140.673 31.4766C140.167 31.4416 139.659 31.5107 139.181 31.6796C138.702 31.8486 138.262 32.114 137.887 32.4597ZM145.097 34.1245C145.159 34.1914 145.204 34.276 145.185 34.2431C144.031 34.9979 142.915 35.7876 141.74 36.4712C141.065 36.8363 140.352 37.1236 139.614 37.3277C138.997 37.5193 138.665 37.2154 138.832 36.5853C139.065 36 139.343 35.4338 139.663 34.8919L139.653 34.8732C139.359 34.9383 139.058 34.9631 138.757 34.9471C138.543 34.9568 138.332 34.896 138.155 34.7738C137.978 34.6517 137.845 34.4748 137.776 34.2698C137.699 34.0544 137.685 33.8211 137.735 33.5977C137.786 33.3744 137.899 33.1705 138.061 33.0105C138.638 32.4499 139.402 32.127 140.202 32.105C141.115 32.0582 142.026 32.2145 142.873 32.563C143.72 32.9115 144.48 33.4436 145.101 34.1219L145.097 34.1245Z" fill="black"/>
<path d="M94.1641 45.775C93.4493 46.3275 92.6966 46.8346 92.0012 47.4113C91.6769 47.6328 91.4221 47.9435 91.2669 48.3067C91.1116 48.67 91.0624 49.0706 91.1251 49.4612C91.2384 49.1183 91.4191 48.8021 91.6562 48.5316C91.8934 48.2611 92.1823 48.042 92.5054 47.8872C92.8694 47.6573 93.2713 47.4772 93.6185 47.2241C94.2494 46.7898 94.8493 46.3112 95.4139 45.7919C95.4956 45.7257 95.5635 45.6439 95.6138 45.5511C95.6641 45.4583 95.6957 45.3564 95.7068 45.2512C95.718 45.146 95.7084 45.0396 95.6787 44.9381C95.649 44.8366 95.5998 44.7421 95.5338 44.66C95.4692 44.5804 95.3906 44.5136 95.302 44.463C94.9518 44.224 94.5399 44.0942 94.1174 44.0896C93.7249 44.1039 93.344 44.2282 93.0173 44.4485C92.6905 44.6688 92.4306 44.9765 92.2665 45.3373C92.0902 45.0325 91.9633 44.8026 91.8152 44.5834C91.2573 43.7589 90.1106 43.3819 89.4152 43.7812C88.622 44.2456 88.4528 45.0174 88.9516 46.1172C89.4156 46.9921 90.1087 47.721 90.955 48.2241C90.8404 47.9683 90.7876 47.8346 90.7241 47.7099C90.3715 46.9594 89.9564 46.2331 89.6664 45.4594C89.402 44.7607 89.7061 44.4497 90.4403 44.5682C90.6595 44.612 90.8707 44.6902 91.0661 44.7999C91.3626 44.951 91.6153 45.1774 91.7993 45.4569C91.9833 45.7364 92.0924 46.0594 92.1158 46.3944C92.8923 45.201 93.5498 44.7304 94.2099 44.9372C94.3072 44.9733 94.3864 45.047 94.43 45.1421C94.4736 45.2372 94.4782 45.3458 94.4426 45.4443C94.4223 45.5005 94.3898 45.5513 94.3474 45.5931C94.2893 45.6609 94.2276 45.7179 94.1641 45.775Z" fill="black"/>
<path d="M81.0402 35.6859C80.5372 35.5156 79.9969 35.4922 79.4813 35.6183C78.9657 35.7444 78.4958 36.015 78.1254 36.3989C78.0999 35.948 78.1492 35.7572 78.1254 35.4043C78.1303 35.1326 78.0638 34.8644 77.9328 34.627C77.8019 34.3897 77.611 34.1917 77.3798 34.0532C77.0832 33.9373 76.7549 33.9347 76.4566 34.046C76.1582 34.1572 75.9102 34.3746 75.7589 34.6574C75.4714 35.0931 75.3226 35.6073 75.3325 36.131C75.3424 36.6547 75.5106 37.1628 75.8144 37.587C76.3803 38.513 77.0704 39.4354 76.4314 40.6422C76.7033 40.4648 76.911 40.2033 77.0237 39.8966C77.1363 39.5899 77.1478 39.2546 77.0563 38.9408C76.8635 38.2915 76.6219 37.658 76.3336 37.046C76.1845 36.7279 76.1201 36.3759 76.1465 36.0249C76.1729 35.6739 76.2893 35.3359 76.4843 35.0442C76.8307 34.4837 77.2344 34.5095 77.5349 35.0844C77.6195 35.2305 77.674 35.3923 77.6953 35.5603C77.7517 36.3098 77.7835 37.0611 77.8214 37.8125C77.8302 37.9907 77.8258 38.169 77.8284 38.3472C78.2744 36.5888 79.0006 35.9818 80.5228 36.259C80.6555 36.27 80.7838 36.3119 80.8979 36.3813C81.0119 36.4507 81.1086 36.5458 81.1803 36.6592C81.2377 36.8206 81.2497 36.995 81.2148 37.163C81.18 37.3309 81.0997 37.4857 80.9829 37.6102C80.9212 37.7599 80.7185 37.8704 80.5545 37.9613C80.2113 38.1579 79.8583 38.3364 79.4969 38.4961C78.4182 38.9488 77.4862 39.6974 76.806 40.6573C76.806 40.6573 77.9994 39.4987 80.7088 38.7679C81.0822 38.6313 81.4054 38.3823 81.6347 38.0543C81.864 37.7264 81.9884 37.3353 81.9912 36.9337C82.0197 36.6423 81.9372 36.3509 81.7605 36.119C81.5837 35.8871 81.3261 35.7322 81.0402 35.6859Z" fill="black"/>
<path d="M127.103 42.2241V42.135C127.098 41.7349 126.936 41.3533 126.652 41.0736C126.369 40.7939 125.988 40.6388 125.593 40.6422C125.166 40.6314 124.75 40.777 124.421 41.052C124.093 41.327 123.873 41.7129 123.804 42.1386C123.762 42.4058 123.735 42.675 123.721 42.9451C123.553 42.9451 123.447 42.9371 123.338 42.9451C122.998 42.9332 122.663 43.0337 122.384 43.2316C122.106 43.4294 121.898 43.7137 121.794 44.0414C121.722 44.3793 121.765 44.7322 121.917 45.0419C122.069 45.3516 122.321 45.5997 122.631 45.7454C123.211 46.1254 123.815 46.4649 124.441 46.7615C125.41 47.2124 126.435 47.5832 126.783 48.8051C126.527 47.5965 126.55 46.3446 126.85 45.1465C127.036 44.1841 127.121 43.2045 127.103 42.2241ZM126.199 47.3247C125.362 46.8265 124.517 46.3444 123.7 45.8328C123.321 45.5864 122.967 45.3041 122.642 44.9897C122.501 44.8923 122.404 44.7424 122.372 44.5728C122.34 44.4031 122.377 44.2277 122.473 44.085C122.498 44.0483 122.528 44.0146 122.561 43.9843C122.684 43.8122 122.867 43.6939 123.074 43.6535C123.28 43.6131 123.494 43.6536 123.671 43.7669C123.868 43.9127 124.046 44.0834 124.2 44.2749C124.801 44.9496 125.396 45.6296 126.06 46.3069C125.669 45.4888 125.317 44.6483 124.869 43.8649C124.698 43.6288 124.581 43.3573 124.525 43.07C124.47 42.7827 124.478 42.4865 124.549 42.2027C124.603 41.9695 124.734 41.7616 124.919 41.6128C125.105 41.4639 125.335 41.3829 125.572 41.3828C126.1 41.3498 126.353 41.7259 126.482 42.1573C126.583 42.4829 126.623 42.8248 126.6 43.1653C126.486 44.5592 126.336 45.9531 126.203 47.3247H126.199Z" fill="black"/>
<path d="M84.1024 33.2636C84.2574 33.2716 84.4127 33.2584 84.5642 33.2244C84.8714 33.1624 85.1417 32.9797 85.3157 32.7163C85.4898 32.453 85.5533 32.1305 85.4923 31.8198C85.1609 32.8528 84.596 33.1567 83.5753 32.7503C83.0918 32.4981 82.6311 32.2034 82.1986 31.8697C81.5202 31.3708 80.8021 30.9296 80.0516 30.5507C79.5726 30.4002 79.0764 30.3133 78.5753 30.2922C79.2328 29.6755 81.9509 28.2201 82.7662 28.114C83.2841 28.0481 83.8088 28.0613 84.3227 28.1532C84.6875 28.2489 85.0156 28.4528 85.2648 28.7388C85.5139 29.0247 85.6727 29.3795 85.7206 29.7575C85.7533 30.0354 85.6912 30.3164 85.5446 30.5538C85.3979 30.7912 85.1755 30.9709 84.9142 31.0631C85.19 31.0319 85.4498 30.9162 85.6589 30.7316C85.9534 30.4014 86.1062 29.9665 86.0837 29.5225C86.0612 29.0784 85.8653 28.6616 85.539 28.3635C85.5144 28.3413 85.4897 28.3199 85.4641 28.2994C84.4505 27.2727 83.2096 27.2602 81.9562 27.671C79.959 28.3297 78.406 29.4776 76.6494 30.7334C76.3156 30.9834 75.9985 31.2556 75.7002 31.548L76.9685 31.2022C77.6456 30.9852 78.3616 30.9215 79.0658 31.0156C79.77 31.1097 80.445 31.3593 81.0431 31.7467C81.4995 32.1105 81.985 32.4352 82.4948 32.7173C82.994 32.9953 83.5385 33.1803 84.1024 33.2636Z" fill="black"/>
<path d="M118.859 8.53209C118.348 8.27363 118.003 7.94565 118.203 7.40823C118.643 6.24363 119.401 5.22959 120.389 4.48454C121.378 3.73949 122.555 3.29419 123.785 3.20064C123.037 3.87287 122.532 4.77745 122.349 5.77189C122.23 6.4035 122.036 7.01839 121.773 7.60341C121.437 8.51337 120.202 9.13636 120.01 8.47059C119.818 7.80483 120.585 6.81644 120.585 6.81644C120.041 7.18587 119.657 7.75289 119.514 8.40019C119.477 8.54233 119.477 8.69208 119.514 8.83422C119.514 8.83422 119.571 9.50623 120.617 9.48216C121.663 9.4581 122.455 7.66045 122.455 7.66045C122.701 6.97522 122.901 6.274 123.054 5.56156C123.281 3.84858 125.128 2.62667 125.128 2.62667C121.691 2.33078 120.104 3.96355 120.104 3.96355C119.05 4.77609 118.293 5.91978 117.952 7.21482C117.901 7.3627 117.886 7.52064 117.907 7.67572C117.928 7.83081 117.985 7.97863 118.073 8.10711C118.162 8.23559 118.279 8.34107 118.416 8.41493C118.552 8.4888 118.704 8.52894 118.859 8.53209Z" fill="black"/>
<path d="M132.468 24.5817C132.852 24.6119 133.233 24.67 133.608 24.7555C133.417 24.5942 133.196 24.473 132.958 24.399C132.009 24.1378 131.228 24.4988 130.979 25.2902C130.729 26.0816 131.091 26.6449 132.076 27.0237C133.09 27.4123 134.118 27.7634 135.118 28.1823C135.703 28.3731 136.223 28.7268 136.618 29.2027C137.013 29.6786 137.267 30.2575 137.352 30.873C137.438 31.3244 137.487 31.7823 137.497 32.242L137.681 31.283C137.933 30.0248 138.107 28.7516 138.199 27.4711C138.229 26.763 138.066 26.0601 137.73 25.4385C137.393 24.8169 136.894 24.3002 136.288 23.9444C136.228 23.8989 136.163 23.8598 136.095 23.8277C135.971 23.7694 135.836 23.7365 135.699 23.7309C135.562 23.7252 135.426 23.7468 135.297 23.7946C135.168 23.8424 135.05 23.9153 134.949 24.0092C134.849 24.1031 134.767 24.2162 134.71 24.3419C134.568 24.6775 134.554 25.0541 134.67 25.3994C134.786 25.7448 135.024 26.0347 135.339 26.2135C135.17 26.0603 135.028 25.8796 134.918 25.6788C134.8 25.465 134.76 25.2155 134.806 24.9748C134.852 24.734 134.981 24.5177 135.17 24.3642C135.596 24.0006 135.937 24.3045 136.272 24.5425C136.392 24.6339 136.499 24.7409 136.591 24.8606C137.541 26.0406 137.682 27.3855 137.385 28.9907C136.62 28.0852 135.585 27.4556 134.436 27.1966C133.67 26.9506 132.906 26.6948 132.145 26.4408C131.688 26.2866 131.312 26.0549 131.386 25.4747C131.433 25.2207 131.568 24.9918 131.766 24.8284C131.964 24.665 132.213 24.5776 132.468 24.5817Z" fill="black"/>
<path d="M89.648 27.1555C88.2854 28.1716 88.0227 29.1225 88.6952 30.2856C88.7185 30.3368 88.7453 30.3862 88.7754 30.4336C88.9495 30.7091 89.2246 30.9034 89.5403 30.9737C89.856 31.0441 90.1864 30.9848 90.4589 30.8088C90.6043 30.7339 90.7568 30.676 90.9419 30.5967C90.9613 30.8141 90.9727 30.9799 90.9886 31.1448C90.9782 31.3082 91.0081 31.4716 91.0757 31.6204C91.1433 31.7692 91.2465 31.8987 91.3759 31.9972C91.5052 32.0956 91.6568 32.16 91.8169 32.1845C91.977 32.2091 92.1406 32.1929 92.293 32.1376C92.7199 32.0534 93.1 31.8104 93.3585 31.4567C93.6169 31.103 93.7349 30.6641 93.6891 30.2268C93.5961 29.7252 93.4517 29.2347 93.2581 28.7634C92.6359 27.1261 93.1762 25.8998 94.8155 25.2786C95.2227 25.1244 95.6247 24.9586 96.1464 24.7527C94.7512 24.7278 91.9599 25.3009 91.2221 26.1155L93.1612 25.5299C93.1017 25.652 93.0361 25.771 92.9646 25.8864C92.6543 26.2698 92.4472 26.7277 92.3634 27.2158C92.2795 27.704 92.3218 28.2057 92.4861 28.6725C92.6403 29.1386 92.8139 29.6011 92.9267 30.0771C92.9267 30.0878 92.9329 30.0976 92.9356 30.1083C92.9697 30.2396 92.9779 30.3764 92.9597 30.5109C92.9415 30.6455 92.8972 30.775 92.8294 30.8923C92.7616 31.0095 92.6717 31.112 92.5647 31.194C92.4577 31.2761 92.3357 31.3359 92.2058 31.3703C91.9308 31.454 91.7166 31.4665 91.7369 31.0672C91.7589 30.6154 91.7721 30.1599 91.7589 29.7072C91.7536 29.553 91.6708 29.3017 91.5729 29.2749C91.4037 29.2706 91.2393 29.3329 91.1146 29.4487C90.7898 29.7535 90.444 30.0347 90.0799 30.2901C89.9591 30.3359 89.8296 30.3531 89.7012 30.3403C89.5728 30.3275 89.4491 30.285 89.3395 30.2161C89.0191 29.9595 88.8101 29.5867 88.7569 29.1769C88.7038 28.7671 88.8106 28.3524 89.0548 28.0209C89.2382 27.7251 89.4488 27.4434 89.648 27.1555Z" fill="black"/>
<path d="M126.574 30.3901C126.266 30.5929 126.026 30.8853 125.885 31.2288C125.745 31.5723 125.71 31.9508 125.787 32.3143C125.918 32.6215 126.136 32.8819 126.415 33.0618C126.694 33.2417 127.02 33.3328 127.35 33.3232C128.265 33.4213 129.201 33.4124 130.108 33.5639C131.225 33.7745 132.254 34.3187 133.062 35.1262C133.279 34.3048 133.432 33.4674 133.519 32.6218C133.571 31.7625 133.295 30.9157 132.749 30.2556C132.202 29.5955 131.426 29.1722 130.581 29.0729C130.389 29.0246 130.188 29.034 130.001 29.1C129.815 29.1661 129.652 29.2858 129.532 29.4445C129.45 29.5637 129.399 29.7016 129.384 29.8458C129.368 29.99 129.389 30.1358 129.444 30.2698C129.428 30.2594 129.412 30.2499 129.395 30.2413C128.974 29.9494 128.47 29.8058 127.96 29.8327C127.45 29.8596 126.963 30.0555 126.574 30.3901ZM129.794 29.7422C129.876 29.6324 129.986 29.5471 130.112 29.4955C130.239 29.4439 130.376 29.4278 130.511 29.449C132.306 29.6923 133.465 32.1316 132.554 33.7867C131.329 32.8678 129.91 32.7555 128.448 32.7261C127.925 32.7409 127.404 32.6578 126.911 32.481C126.793 32.4423 126.685 32.3749 126.598 32.2847C126.511 32.1945 126.447 32.0842 126.412 31.9634C126.376 31.8425 126.37 31.7148 126.395 31.5911C126.419 31.4675 126.473 31.3517 126.551 31.2538C126.587 31.1974 126.626 31.143 126.668 31.0907C127.351 30.2395 128.983 30.178 129.841 30.8536L129.877 30.9017L129.888 30.8714C129.821 30.7173 129.772 30.5558 129.742 30.3901C129.708 30.2839 129.695 30.1719 129.704 30.0606C129.714 29.9494 129.745 29.8411 129.796 29.7422H129.794Z" fill="black"/>
<path d="M122.542 31.0443C122.502 30.5234 122.359 30.016 122.121 29.5522C121.883 29.0885 121.555 28.6778 121.157 28.3447C120.935 28.1439 120.664 28.0079 120.372 27.9514C120.08 27.8948 119.778 27.9199 119.499 28.0238C119.22 28.1277 118.974 28.3066 118.788 28.5412C118.601 28.7758 118.482 29.0573 118.442 29.3554C118.386 29.7521 118.439 30.1568 118.594 30.5256C118.247 30.3671 117.867 30.2938 117.487 30.3117C117.195 30.3121 116.91 30.4061 116.674 30.5802C116.438 30.7542 116.263 30.9994 116.174 31.2805C116.094 31.5457 116.109 31.831 116.216 32.0861C116.324 32.3412 116.517 32.5498 116.761 32.6753C117.096 32.8783 117.465 33.0162 117.85 33.0817C118.323 33.1479 118.802 33.1509 119.276 33.0906C119.89 33.0203 120.511 33.0791 121.101 33.2631C121.691 33.4472 122.237 33.7525 122.705 34.1601C122.667 33.7769 122.616 33.4578 122.609 33.1325C122.629 32.4357 122.607 31.7383 122.542 31.0443ZM120.891 32.8268C119.904 32.6218 119.101 32.6093 118.099 32.4703C117.865 32.4195 117.635 32.3518 117.41 32.268C117.045 32.1361 116.716 31.9115 116.881 31.4828C116.911 31.3939 116.958 31.3119 117.019 31.2413C117.08 31.1708 117.155 31.1132 117.238 31.0718C117.321 31.0304 117.412 31.006 117.504 31.0001C117.597 30.9941 117.69 31.0067 117.778 31.0372C117.808 31.0479 117.836 31.0603 117.866 31.0737C118.536 31.3616 119.178 31.7109 119.834 32.0336C119.946 32.0897 120.06 32.1298 120.174 32.1762L119.27 30.8919C119.099 30.64 119.006 30.3426 119.003 30.0373C119 29.7321 119.086 29.4327 119.251 29.1771C119.308 29.0406 119.395 28.9191 119.506 28.8223C119.617 28.7255 119.748 28.656 119.89 28.6191C120.032 28.5822 120.181 28.5791 120.324 28.6099C120.467 28.6407 120.601 28.7046 120.716 28.7966C121.354 29.2164 121.809 29.8678 121.986 30.6165C122.245 31.5514 122.209 32.4792 122.417 33.5309C121.934 33.2409 121.422 33.0043 120.889 32.825L120.891 32.8268Z" fill="black"/>
<path d="M86.5401 10.0918C86.5083 10.3734 86.5128 10.658 86.5533 10.9384C86.5591 11.057 86.5929 11.1725 86.6518 11.2753C86.7107 11.378 86.7931 11.4649 86.8921 11.5289C86.991 11.5928 87.1037 11.6319 87.2206 11.6428C87.3375 11.6538 87.4554 11.6362 87.5642 11.5917C87.8582 11.4805 88.1107 11.2793 88.2863 11.0162C88.462 10.7531 88.5522 10.4412 88.5443 10.1238C88.4148 10.5027 88.1733 10.8322 87.8525 11.0677C87.8061 11.1199 87.7462 11.1578 87.6796 11.1773C87.6129 11.1967 87.5422 11.1968 87.4755 11.1776C87.4088 11.1583 87.3488 11.1205 87.3023 11.0685C87.2558 11.0164 87.2247 10.9522 87.2126 10.8832C87.1266 10.5338 87.0945 10.173 87.1174 9.81368C87.1262 8.5597 87.1174 7.30571 87.1095 6.03657C87.7449 6.39307 88.4888 6.77007 89.1966 7.21035C90.0506 7.66132 90.8712 8.19072 91.2237 9.19694C91.2903 9.38589 91.2996 9.59063 91.2505 9.78497C91.2013 9.9793 91.096 10.1544 90.9479 10.2878C90.8007 10.3599 90.6346 10.3824 90.4739 10.3519C90.3132 10.3214 90.1663 10.2396 90.055 10.1185L88.5928 8.96878C88.9824 9.48426 89.4118 9.96765 89.877 10.4144C90.2295 10.7709 90.6068 11.0195 91.1233 10.7468C91.3506 10.6131 91.5333 10.4139 91.6481 10.1747C91.7628 9.93542 91.8044 9.66699 91.7676 9.40371C91.7134 8.97727 91.5735 8.56657 91.3562 8.19698C91.139 7.82739 90.8491 7.50677 90.5045 7.25491C89.4319 6.47239 88.2649 5.87971 87.1553 5.14889C86.5886 4.77723 85.8332 4.2006 85.2744 3.81201C85.4763 4.21931 85.7477 4.6382 85.8597 4.86636C86.5918 6.502 86.8285 8.32023 86.5401 10.0918Z" fill="black"/>
<path d="M92.8389 15.5544C92.9077 15.6121 92.9629 15.6846 93.0002 15.7667C93.0376 15.8487 93.0563 15.9382 93.0549 16.0286C92.9667 17.197 92.8557 18.3654 92.7129 19.5276C92.6706 19.8663 92.5419 20.2103 92.1955 20.2941C92.1266 20.3083 92.0556 20.3077 91.9869 20.2924C91.9183 20.277 91.8536 20.2472 91.7971 20.205C91.6274 20.0879 91.4888 19.9302 91.3938 19.746C91.2988 19.5617 91.2502 19.3566 91.2524 19.1488C91.2887 18.4568 91.4296 17.7745 91.6702 17.1257C91.8165 16.5758 92.0166 16.0393 92.192 15.4983C91.7633 16.1235 91.3854 16.7828 91.0621 17.4697C90.6586 18.1838 90.5145 19.0179 90.6549 19.828C90.7154 20.136 90.8724 20.4162 91.1025 20.6271C91.3326 20.838 91.6238 20.9684 91.9329 20.9991C92.2333 21.0269 92.5341 20.9499 92.7854 20.781C93.0366 20.6121 93.2231 20.3613 93.314 20.0704L93.4718 19.5686C93.5636 19.6326 93.662 19.6864 93.7653 19.729C94.592 20.0339 94.9313 19.9554 95.357 19.4358C95.5767 19.19 95.7181 18.8829 95.7627 18.5546C95.8074 18.2264 95.7532 17.8921 95.6073 17.5954C95.168 16.6637 94.4436 15.8999 93.5414 15.4172C92.6688 14.9858 92.0219 14.4511 92.066 13.3584C91.9219 13.7582 91.9203 14.1963 92.0614 14.5972C92.2025 14.998 92.4775 15.3366 92.8389 15.5544ZM94.9842 18.0713C95.0156 18.2321 95.0089 18.3982 94.9646 18.5559C94.9203 18.7136 94.8398 18.8585 94.7295 18.9786C94.604 19.062 94.4587 19.1097 94.3088 19.1168C94.1588 19.124 94.0097 19.0903 93.8771 19.0192C93.7444 18.9482 93.633 18.8424 93.5546 18.713C93.4762 18.5836 93.4336 18.4352 93.4312 18.2834C93.4312 17.4938 93.3431 16.7068 93.2787 15.7808C94.0712 16.3441 94.6679 17.1455 94.9842 18.0713Z" fill="black"/>
<path d="M128.36 43.5859C128.766 43.2731 128.943 43.1759 129.355 42.8337C129.931 42.417 130.393 41.8585 130.695 41.2111C130.998 40.5636 131.133 39.8488 131.086 39.1341C131.07 37.7598 130.299 35.7473 128.574 35.3124C128.377 35.2296 128.156 35.2213 127.953 35.289C127.75 35.3568 127.577 35.496 127.467 35.6814C127.373 35.9132 127.37 36.1725 127.458 36.4067C127.546 36.6409 127.719 36.8325 127.941 36.9425C127.877 36.8584 127.824 36.7661 127.784 36.668C127.702 36.5614 127.648 36.4364 127.625 36.3038C127.602 36.1712 127.611 36.035 127.652 35.9069C127.787 35.5245 128.287 35.7518 128.534 35.8507C130.244 36.5201 131.002 39.5441 129.832 41.0476C129.426 40.4272 128.821 39.967 128.119 39.7446C127.517 39.4918 126.934 39.1939 126.375 38.8533C126.076 38.6599 125.829 38.3955 125.654 38.0833C125.579 37.9719 125.539 37.8405 125.538 37.7058C125.538 37.5712 125.577 37.4394 125.651 37.3272C125.724 37.2151 125.829 37.1278 125.953 37.0764C126.076 37.025 126.211 37.0119 126.342 37.0388L127.656 37.3329L127.281 37.1484C126.956 36.9954 126.617 36.8716 126.27 36.7785C126.113 36.7385 125.947 36.7411 125.791 36.7861C125.634 36.8311 125.493 36.9169 125.379 37.035C125.266 37.1531 125.186 37.2991 125.146 37.4586C125.106 37.6181 125.109 37.7852 125.154 37.9434C125.24 38.4032 125.48 38.8191 125.833 39.1216C126.677 39.7348 127.613 40.217 128.512 40.7588C129.264 41.2098 129.377 41.6242 128.971 42.3996C128.76 42.7882 128.563 43.1884 128.36 43.5859Z" fill="black"/>
<path d="M97.0667 11.8006C97.2755 11.4895 97.4412 11.3728 97.7823 11.5751C97.9664 11.6694 98.1638 11.7341 98.3676 11.7667C99.8342 12.084 100.718 11.2551 100.517 9.74625C100.315 8.21954 98.4398 6.7062 96.4682 6.3595C96.9265 6.61975 97.2879 6.81048 97.6351 7.02527C98.6858 7.67231 99.5848 8.45127 99.8862 9.73467C99.9311 9.86984 99.9493 10.0126 99.9395 10.1549C99.9298 10.2972 99.8925 10.4361 99.8296 10.5638C99.7667 10.6914 99.6796 10.8053 99.5731 10.8988C99.4667 10.9924 99.3431 11.0638 99.2093 11.109C98.9066 11.1876 98.5868 11.1649 98.2979 11.0442C98.009 10.9235 97.7666 10.7114 97.6069 10.4396C97.3707 10.011 97.1804 9.55805 97.0393 9.08851C96.9274 9.54037 96.6868 10.8576 96.5105 11.2899C96.4398 11.4922 96.2992 11.662 96.1146 11.7679C95.93 11.8738 95.7138 11.9089 95.5057 11.8665C95.2874 11.8243 95.0901 11.7075 94.9468 11.5356C94.8035 11.3638 94.723 11.1474 94.7187 10.9227C94.671 10.5778 94.7011 10.2265 94.8068 9.89509C95.0368 9.18209 95.2404 8.64199 95.4722 7.92543C95.6131 7.31478 95.7228 6.69722 95.801 6.0752L95.7869 6.08054C95.7038 6.51955 95.5949 6.95317 95.4608 7.37909C95.2811 7.79394 95.0787 8.19831 94.8544 8.5903C94.6217 9.00011 94.4127 9.42328 94.2286 9.85766C94.0772 10.1973 94.0112 10.5695 94.0366 10.9412C94.0619 11.3129 94.1779 11.6724 94.374 11.9877C95.0333 12.9984 96.3184 12.9129 97.0667 11.8006Z" fill="black"/>
<path d="M127.159 15.8485C127.073 15.957 127.019 16.0875 127.003 16.2252C126.987 16.363 127.009 16.5025 127.067 16.6282C127.125 16.754 127.217 16.8609 127.331 16.9369C127.446 17.013 127.579 17.0552 127.717 17.0588C127.131 16.5597 127.151 16.1774 127.787 15.7344C127.879 15.6698 127.977 15.614 128.08 15.5677C129.863 14.7594 131.673 14.369 133.725 15.3111C132.148 15.6408 131.245 16.7219 130.236 17.6738C129.615 18.2214 128.951 18.7168 128.25 19.155H128.244C128.162 19.1884 128.072 19.2008 127.984 19.1911C127.896 19.1814 127.811 19.1499 127.737 19.0994C127.664 19.049 127.603 18.981 127.562 18.9015C127.52 18.822 127.499 18.7334 127.499 18.6434C127.497 18.5695 127.504 18.4956 127.519 18.4233C127.606 18.1899 127.731 17.9723 127.887 17.7789C127.189 18.2344 126.987 18.8297 127.291 19.3368C127.569 19.8101 128.002 19.893 128.657 19.4491C129.662 18.7655 130.657 18.0525 131.59 17.2718C132.221 16.7044 132.976 16.2966 133.794 16.082C134.296 15.9652 134.798 15.8298 135.481 15.6604C134.959 15.2431 134.405 14.8702 133.823 14.5455C132.764 14.1194 131.611 13.9873 130.485 14.1628C129.358 14.3383 128.298 14.815 127.415 15.5437C127.31 15.6266 127.223 15.7303 127.159 15.8485Z" fill="black"/>
<path d="M81.4983 43.1726C81.3929 42.8414 81.1817 42.5551 80.8979 42.3584C80.6141 42.1618 80.2738 42.066 79.9303 42.0861C78.1861 42.0861 76.9804 42.8758 75.8557 44.1235C75.4988 44.5183 75.0951 44.8695 74.7161 45.2483C74.4931 45.4675 74.2833 45.6939 74.0674 45.9212C74.5998 45.6583 75.1835 45.5188 75.7759 45.5126C76.3684 45.5064 76.9548 45.6338 77.4924 45.8855C78.1746 46.242 78.826 46.6484 79.5196 46.9818C79.8251 47.133 80.1747 47.1665 80.5029 47.076C80.8311 46.9854 81.1154 46.777 81.3027 46.4898C81.9038 45.4025 80.654 44.8989 80.654 44.8989C81.3344 44.3784 81.6649 43.7804 81.4983 43.1726ZM80.334 44.7964C80.0405 44.8936 79.7294 44.9372 79.2764 45.0397C79.7073 45.1173 79.9815 45.1413 80.2512 45.218C80.6487 45.3347 80.9774 45.603 80.8223 46.0406C80.683 46.4497 80.2697 46.4648 79.9136 46.3C79.4553 46.0905 79.0163 45.8383 78.5739 45.5976C77.6643 45.1039 76.7477 44.6342 75.6451 44.7741C76.9671 43.743 78.3306 42.8383 80.0855 42.8945C80.4971 42.9079 80.9369 42.9631 81.0268 43.5086C81.0853 43.7717 81.0474 44.0473 80.9199 44.2842C80.7925 44.5211 80.5843 44.7032 80.334 44.7964Z" fill="black"/>
<path d="M94.8849 35.8713C94.2997 36.2696 93.6448 36.5602 93.0226 36.9078C92.2117 37.3098 91.5791 38.0042 91.2492 38.8543C92.0734 37.8437 93.1994 37.1307 94.4584 36.8222C94.6732 36.7551 94.8814 36.6683 95.0806 36.5629C95.4226 36.4042 95.7077 36.1425 95.897 35.8137C96.0863 35.4849 96.1706 35.1051 96.1383 34.726C96.077 34.3874 95.9072 34.0786 95.655 33.8474C95.4028 33.6162 95.0823 33.4755 94.743 33.4471C94.2841 33.4479 93.8259 33.4845 93.3725 33.5567C93.3637 33.4133 93.3222 33.2739 93.2511 33.1495C93.1799 33.0251 93.0812 32.9191 92.9627 32.8399C92.8442 32.7606 92.7091 32.7103 92.5681 32.6929C92.427 32.6755 92.2839 32.6914 92.15 32.7394C91.7627 32.8502 91.4183 33.0781 91.1629 33.3927C90.5697 34.1681 90.7345 36.4613 91.4176 37.5504C91.3955 37.1939 91.3709 36.89 91.3594 36.5905C91.2992 35.8381 91.2768 35.0832 91.2924 34.3285C91.2938 34.2066 91.3189 34.0862 91.3664 33.9742C91.4139 33.8621 91.4827 33.7607 91.569 33.6756C91.6553 33.5905 91.7573 33.5234 91.8693 33.4782C91.9812 33.4331 92.1009 33.4106 92.2214 33.4123C92.3545 33.4127 92.4857 33.4432 92.6057 33.5014C92.6163 33.5553 92.6163 33.6107 92.6057 33.6645C92.373 34.1369 92.1403 34.6101 91.8935 35.0763C91.7481 35.3499 91.7816 35.603 92.0804 35.6493C92.2514 35.6752 92.4796 35.5014 92.6392 35.3668C93.0226 35.0397 93.3513 34.6378 93.7585 34.3472C94.0004 34.1805 94.295 34.1106 94.585 34.1513C94.8749 34.192 95.1396 34.3403 95.3274 34.5674C95.6526 35.0201 95.5636 35.4087 94.8849 35.8713Z" fill="black"/>
<path d="M73.4873 30.6378C73.4873 30.6378 74.2806 30.5745 74.1237 31.1048C74.0021 31.2652 73.7033 31.2135 73.475 31.2661C73.205 31.2916 72.9448 31.3817 72.716 31.5289C72.4872 31.6761 72.2963 31.8763 72.1591 32.1128C71.6973 32.8338 71.2645 33.6181 70.295 33.7857C70.1898 33.8207 70.0904 33.8712 69.9997 33.9354C71.6312 33.7571 71.6232 33.7803 73.2124 34.3275C73.6377 34.475 74.0948 34.5025 74.5344 34.4069C75.533 34.1511 75.7234 32.8704 74.954 31.9943C74.882 31.9216 74.8252 31.8352 74.7869 31.7399C74.7486 31.6447 74.7296 31.5427 74.731 31.4399C74.9672 30.513 74.6014 29.9729 73.6733 29.9515H73.5984C71.3659 29.9266 70.0262 31.2679 69.5088 33.996C69.757 33.5459 69.9755 33.0796 70.1628 32.6003C70.7357 31.0852 72.0683 30.6993 73.4873 30.6378ZM74.7653 33.1903C74.7762 33.3644 74.7182 33.5357 74.6042 33.6666C74.4901 33.7975 74.3294 33.8772 74.1572 33.8882C74.082 33.8928 74.0066 33.8844 73.9342 33.8632C73.1633 33.6956 72.3835 33.5736 71.5985 33.4978C72.4032 33.1146 72.6562 32.5112 73.1965 32.193C73.3646 32.1338 73.5436 32.1136 73.7205 32.1339C73.8973 32.1543 74.0673 32.2145 74.218 32.3103C74.3687 32.4061 74.4961 32.5349 74.5908 32.6872C74.6856 32.8396 74.7452 33.0115 74.7653 33.1903Z" fill="black"/>
<path d="M100.415 17.6567C100.737 17.8724 101.12 17.9756 101.505 17.9507C101.89 17.9257 102.257 17.774 102.549 17.5186C102.746 17.3403 102.927 17.1549 103.131 16.9535C103.318 17.2199 103.587 17.4165 103.896 17.5131C104.205 17.6097 104.537 17.601 104.84 17.4883C105.225 17.3994 105.559 17.1599 105.77 16.8223C105.98 16.4847 106.05 16.0764 105.963 15.687C105.591 14.3502 105.034 12.7771 104.597 11.4536C104.621 11.713 104.773 12.5231 104.816 12.7014C105.074 13.8234 105.169 14.5846 105.415 15.7093C105.541 16.286 105.174 16.7013 104.541 16.7646C104.302 16.8225 104.05 16.7819 103.84 16.6519C103.631 16.5219 103.481 16.313 103.424 16.0712C103.413 16.0257 103.406 15.9795 103.402 15.933L103.377 15.0703C103.209 15.2771 103.061 15.5001 102.936 15.7361C102.619 16.2797 102.285 16.7334 102.285 16.7334C102.217 16.8524 102.127 16.9568 102.02 17.0405C101.912 17.1242 101.789 17.1855 101.658 17.2211C101.527 17.2566 101.391 17.2656 101.256 17.2475C101.122 17.2294 100.992 17.1846 100.875 17.1157L100.856 17.1041C100.622 16.9115 100.464 16.6404 100.411 16.34C100.357 16.0397 100.412 15.7299 100.565 15.4669C100.87 14.8047 101.232 14.1709 101.647 13.573C102.007 13.0383 102.452 12.557 102.86 12.049C101.539 12.8551 100.486 14.0398 99.8329 15.4526C99.6659 15.8319 99.6326 16.2576 99.7384 16.6587C99.8443 17.0598 100.083 17.412 100.415 17.6567Z" fill="black"/>
<path d="M132.455 39.1246C133.112 39.4842 133.853 39.657 134.599 39.6246C135.846 39.6941 137.014 39.3278 138.075 40.4624C137.97 37.9499 136.824 35.8805 135.088 35.6612C136.543 36.3608 137.06 37.5587 137.291 39.1674C135.997 39.0382 134.927 38.9 133.744 38.7547C133.424 38.7247 133.112 38.6378 132.823 38.4981C132.314 38.2307 133.204 38.0417 133.204 38.0417C133.934 37.8981 134.675 37.8208 135.418 37.8109L134.535 37.2904C133.865 36.9491 133.578 36.745 133.007 36.5141C132.845 36.4517 132.643 36.2254 132.654 36.0979C132.652 35.9996 132.682 35.9032 132.739 35.8235C132.796 35.7439 132.878 35.6853 132.971 35.6568C133.254 35.5906 133.544 35.5607 133.834 35.5676L133.787 35.5293C133.679 35.446 133.556 35.3849 133.425 35.3496C133.294 35.3143 133.157 35.3055 133.023 35.3236C132.888 35.3417 132.759 35.3865 132.641 35.4553C132.524 35.524 132.421 35.6155 132.339 35.7245C132.011 36.2245 132.177 36.6006 133.068 37.2574C132.807 37.4139 132.562 37.5963 132.337 37.802C131.852 38.3492 131.903 38.6683 132.455 39.1246Z" fill="black"/>
<path d="M78.617 24.9969C78 24.9247 77.3971 24.7866 76.7863 24.6841C76.331 24.5608 75.8512 24.5645 75.3977 24.6947C74.9443 24.825 74.5342 25.0769 74.2109 25.4238C75.3215 24.6966 76.4294 24.9729 77.5478 25.3704C77.942 25.4967 78.3498 25.5745 78.7624 25.6021C78.9525 25.6514 79.1528 25.6419 79.3376 25.5749C79.5223 25.5079 79.683 25.3865 79.7988 25.2263C79.9146 25.0661 79.9803 24.8745 79.9874 24.6762C79.9945 24.4779 79.9427 24.2819 79.8386 24.1137C79.6699 23.7936 79.4716 23.4904 79.2463 23.2082C79.5164 22.9898 79.7753 22.7574 80.0219 22.5121C80.1551 22.396 80.2524 22.2436 80.3023 22.0731C80.3523 21.9026 80.3526 21.7212 80.3034 21.5505C80.2541 21.3798 80.1574 21.227 80.0246 21.1104C79.8919 20.9938 79.7288 20.9182 79.5547 20.8927C78.9104 20.8223 78.2586 20.8829 77.6377 21.071C76.917 21.2786 76.2552 21.6562 75.7068 22.1727C75.1584 22.6893 74.7391 23.3301 74.4833 24.0424C74.5864 23.9996 74.4718 24.0504 74.4903 24.0264C74.6428 23.8347 74.8993 23.5522 75.0518 23.3606C75.5109 22.7762 76.092 22.3016 76.7536 21.9707C77.4151 21.6397 78.1408 21.4606 78.8787 21.4462C79.1097 21.4355 79.7971 21.399 79.5909 21.7697C79.4595 21.9816 79.2942 22.1698 79.1017 22.3267C78.6342 22.6065 78.1402 22.8385 77.6272 23.0192C77.3742 23.1396 76.9644 23.1645 77.0983 23.6003C77.2261 24.0139 77.569 23.8677 77.8581 23.7946C78.0719 23.7085 78.3071 23.6927 78.5303 23.7497C78.7534 23.8067 78.9531 23.9334 79.1008 24.1119C79.1923 24.2016 79.2567 24.3158 79.2864 24.4411C79.316 24.5664 79.3098 24.6977 79.2683 24.8196C79.1625 24.9738 79.0039 25.0727 78.617 24.9969Z" fill="black"/>
<path d="M88.0004 49.1126C88.2623 48.9939 88.4752 48.7866 88.6023 48.5263C88.7294 48.266 88.7627 47.9691 88.6966 47.6866C88.6271 47.3753 88.4729 47.0898 88.2515 46.8624C88.03 46.635 87.7501 46.4747 87.4433 46.3996C87.3885 46.3863 87.3322 46.38 87.2759 46.3809C87.0176 46.3816 86.76 46.407 86.5064 46.4567C86.7771 46.4645 87.0433 46.5289 87.2882 46.6456C87.5223 46.7314 87.7295 46.8789 87.8882 47.0729C88.0469 47.2669 88.1514 47.5004 88.1907 47.749C88.2091 47.9813 88.1557 48.2137 88.0377 48.4139C87.9198 48.6142 87.7431 48.7724 87.5323 48.8666C87.0551 49.0553 86.5606 49.1959 86.056 49.2864C85.016 49.4239 84.0238 49.8114 83.1624 50.4165C83.1624 49.2917 83.1845 48.1768 83.173 47.069C83.1563 45.921 83.5899 45.1581 84.4951 44.8783C84.7044 44.7934 84.9351 44.7784 85.1534 44.8355C85.3718 44.8926 85.5663 45.0187 85.7088 45.1956C85.8517 45.375 85.9229 45.602 85.9082 45.8319C85.8935 46.0618 85.794 46.2778 85.6294 46.4371C85.2046 46.9718 84.7921 47.5146 84.3752 48.0529L84.1566 48.372C84.8662 47.8531 85.5044 47.2411 86.0543 46.552C86.2075 46.376 86.3128 46.1628 86.36 45.9333C86.4072 45.7038 86.3947 45.4657 86.3236 45.2426C86.2526 45.0194 86.1254 44.8187 85.9546 44.6602C85.7837 44.5017 85.5751 44.3907 85.3492 44.3382C84.8578 44.2556 84.3532 44.32 83.8975 44.5236C82.8205 45.0378 82.5754 46.0476 82.6389 47.1554C82.7209 48.4754 83.188 49.9486 82.4512 51.2828C82.4512 51.2828 83.4974 50.4726 86.1274 49.7989C86.7806 49.6604 87.4111 49.4294 88.0004 49.1126Z" fill="black"/>
<path d="M107.111 11.0596C107.146 11.2498 107.245 11.4217 107.392 11.5455C107.539 11.6693 107.724 11.737 107.916 11.7369C108.224 11.7115 108.513 11.5763 108.732 11.3556C108.951 11.1348 109.086 10.8426 109.112 10.5311C108.914 10.7443 108.693 10.935 108.453 11.0997C108.423 11.1076 108.394 11.1181 108.365 11.1309C107.88 11.4125 107.058 10.6639 108.376 8.92413C109.694 7.18442 110.609 6.8395 110.609 6.8395C110.497 7.86073 110.515 8.89221 110.661 9.90896C110.731 10.187 110.739 10.477 110.686 10.7586C110.632 11.0402 110.519 11.3066 110.353 11.5391C110.073 11.8724 109.731 12.0284 109.383 11.5391C109.426 12.1736 109.875 12.367 110.375 12.0239C110.727 11.7739 110.995 11.4214 111.143 11.0135C111.292 10.6056 111.314 10.1615 111.207 9.74052C111.016 8.70781 111.129 7.64115 111.532 6.67284L112.316 5.30566C111.972 5.45094 111.624 5.5873 111.284 5.74416C110.363 6.07244 109.523 6.5959 108.818 7.27945C108.114 7.96301 107.563 8.79087 107.201 9.70754C107.052 10.142 107.021 10.6089 107.111 11.0596Z" fill="black"/>
<path d="M88.3325 22.3768C87.9499 22.2778 87.5526 22.2503 87.1602 22.2956C85.5991 22.5504 84.1432 23.2532 82.9658 24.3206C82.7198 24.5445 82.4955 24.7916 82.2959 25.0585L83.3007 24.407C83.5605 24.3355 83.834 24.3326 84.0952 24.3984C84.3565 24.4642 84.5967 24.5967 84.7929 24.7831C85.5329 25.3856 86.305 25.9467 87.1056 26.464C87.3671 26.643 87.6851 26.7173 87.9977 26.6723C88.3103 26.6273 88.5952 26.4663 88.797 26.2207C89.1927 25.784 89.2033 25.3375 88.8234 24.5844C88.8913 24.489 88.9724 24.3874 89.042 24.2751C89.1716 24.116 89.2573 23.9251 89.2904 23.7217C89.3235 23.5183 89.3029 23.3097 89.2306 23.117C89.1583 22.9243 89.0369 22.7543 88.8787 22.6243C88.7205 22.4943 88.5312 22.4089 88.3298 22.3768H88.3325ZM87.7155 25.0621C88.0381 25.0006 88.4277 25.0772 88.3968 25.5131C88.3704 25.8874 88.0108 26.0478 87.6406 25.9587C87.3292 25.8936 87.0274 25.7885 86.7425 25.6459C86.2004 25.3508 85.4592 24.7903 84.9074 24.5166C84.5433 24.2885 84.1256 24.1627 83.6973 24.1521C84.8421 23.4498 86.1371 23.0362 87.4731 22.9463C87.8768 22.9222 88.4277 22.9062 88.5052 23.4667C88.5828 24.0273 88.0804 24.1494 87.6609 24.276L87.1585 24.4284C86.7469 24.5059 87.1197 25.1753 87.7129 25.063L87.7155 25.0621Z" fill="black"/>
<path d="M98.8398 38.0413C98.7175 37.7741 98.5244 37.5463 98.2818 37.3833C98.0393 37.2203 97.7568 37.1285 97.4658 37.118C97.3213 37.1147 97.1773 37.1364 97.04 37.1822C97.516 37.9593 99.4921 45.6383 99.4921 45.6383L99.6939 46.2488V44.9173C99.6207 43.5288 99.5291 43.0662 99.4189 41.2534C99.314 39.9486 99.292 38.9558 98.8398 38.0413Z" fill="black"/>
<path d="M98.8716 33.0556C99.1359 32.9051 99.3919 32.7399 99.6384 32.561C99.9592 32.299 100.243 31.9924 100.563 31.7268C101.155 31.306 101.719 30.8473 102.253 30.3534C102.532 30.1218 102.716 29.7923 102.767 29.4303C102.818 29.0683 102.732 28.7002 102.528 28.3989C102.137 27.8686 101.679 27.8053 100.698 28.1885C100.578 28.2509 100.443 28.2746 100.309 28.2564C100.176 28.2382 100.051 28.1791 99.9522 28.0869C99.6833 27.8643 99.338 27.7589 98.9923 27.7936C98.6465 27.8284 98.3286 28.0006 98.1083 28.2723C98.009 28.3952 97.932 28.5349 97.8809 28.6849C97.6885 29.266 97.6842 29.894 97.8687 30.4776C98.0532 31.0613 98.4168 31.5704 98.9068 31.9309C98.7852 31.6813 98.6988 31.5271 98.6319 31.3667C98.3278 30.6368 97.9267 29.9158 98.2863 29.0896C98.3407 28.8842 98.4701 28.7073 98.6484 28.5947C98.8268 28.482 99.0407 28.442 99.2471 28.4826C99.7327 28.586 99.7644 29.0174 99.6992 29.3864C99.4877 30.61 99.797 31.9478 98.8716 33.0556ZM100.458 29.4995C100.735 29.1111 101.127 28.823 101.578 28.6778C101.891 28.5477 102.222 29.0521 102.041 29.4282C101.83 29.8667 101.554 30.2695 101.221 30.6225C100.863 30.9493 100.48 31.2473 100.076 31.5138L99.9636 31.4612C100.055 30.7893 100.222 30.1301 100.46 29.496L100.458 29.4995Z" fill="black"/>
<path d="M115.384 43.021C114.531 43.6627 114.173 43.7278 113.422 44.5646C114.204 44.0869 115.082 43.5673 115.941 43.0174C116.233 42.8427 116.479 42.5983 116.656 42.3056C116.833 42.0129 116.936 41.6808 116.957 41.3383C117.045 40.2091 116.227 39.5558 115.201 40.0068C114.776 40.2335 114.371 40.4959 113.989 40.7911C113.487 40.1672 113.057 40.0335 112.525 40.3954C112.276 40.5513 112.068 40.7657 111.918 41.0202C111.768 41.2748 111.681 41.5621 111.664 41.8579C111.707 42.8623 112.092 43.8208 112.754 44.5709C112.495 44.054 112.303 43.5055 112.182 42.939C112.102 42.6075 112.105 42.2607 112.193 41.931C112.281 41.6014 112.45 41.2996 112.685 41.054C112.782 40.9702 112.908 40.929 113.036 40.9394C113.163 40.9497 113.281 41.0108 113.364 41.1093C113.413 41.1673 113.448 41.2364 113.466 41.3107C113.578 41.6226 113.484 41.8455 113.347 42.3561L113.103 43.5067L113.689 42.5941C113.866 42.3552 114.119 41.9907 114.299 41.7554C114.582 41.3945 114.915 41.0753 115.286 40.8071C115.386 40.7424 115.498 40.6974 115.615 40.6743C115.739 40.6449 115.869 40.6624 115.98 40.7235C116.092 40.7847 116.177 40.8852 116.22 41.0059C116.285 41.207 116.304 41.4202 116.276 41.6298C116.171 42.1938 115.85 42.6933 115.384 43.021Z" fill="black"/>
<path d="M103.042 7.13472C103.221 7.22801 103.427 7.25187 103.622 7.20178C103.817 7.15169 103.987 7.03113 104.1 6.86289C104.382 6.54835 104.596 6.17729 104.728 5.77378C104.511 6.04735 104.269 6.29979 104.006 6.52778C103.775 6.70603 103.63 6.84417 103.354 6.70603C103.1 6.52778 103.153 6.33616 103.28 5.98323C103.393 5.64359 103.538 5.31539 103.712 5.00285C104.045 4.3255 104.382 3.65083 104.731 2.95298C105.006 3.27116 105.212 3.54121 105.453 3.7756C105.701 4.00648 105.962 4.22225 106.235 4.42176C106.472 4.56444 106.654 4.78317 106.754 5.04307C106.853 5.30297 106.864 5.58908 106.784 5.85578C106.696 6.12315 106.54 6.47965 106.225 6.51441C106.095 6.51083 105.966 6.47794 105.85 6.41814C105.734 6.35833 105.632 6.2731 105.552 6.16861C105.421 5.90497 105.329 5.62371 105.279 5.33351C105.229 5.57905 105.232 5.8324 105.286 6.07681C105.305 6.29552 105.398 6.50107 105.548 6.6592C105.699 6.81733 105.899 6.91848 106.114 6.94578C106.338 6.98379 106.568 6.94145 106.765 6.82607C106.961 6.71069 107.112 6.52953 107.19 6.31388C107.386 5.93212 107.448 5.49485 107.367 5.07285C107.286 4.65085 107.067 4.26882 106.744 3.98861C106.312 3.62939 105.923 3.21986 105.585 2.76849C105.277 2.30933 105.067 1.79029 104.968 1.24446L104.822 0.615234L104.595 1.19633C104.193 2.16244 103.777 3.12232 103.391 4.09645C103.105 4.70489 102.85 5.3278 102.626 5.96273C102.572 6.17774 102.582 6.40444 102.656 6.61342C102.73 6.8224 102.865 7.00402 103.042 7.13472Z" fill="black"/>
<path d="M120.549 39.7854C120.275 40.4761 119.983 41.1615 119.7 41.8487C120.103 41.2543 120.451 40.624 120.74 39.9654C121.136 39.1095 121.48 38.2293 121.767 37.33C122.017 36.56 122.013 35.7828 121.458 35.3122C120.85 34.8604 120.021 35.1527 119.403 35.4548C118.993 35.6784 118.595 35.9236 118.211 36.1892C118.197 36.2231 118.069 36.0609 117.923 35.9219C117.68 35.7127 117.386 35.5738 117.071 35.5198C116.757 35.4658 116.434 35.4988 116.136 35.6153C115.867 35.7859 115.656 36.0358 115.532 36.3314C115.407 36.627 115.375 36.954 115.44 37.2685C115.64 38.0764 116.069 38.8078 116.674 39.3728C117.367 40.2052 118.148 41.1838 118.771 41.9503C118.701 41.774 118.615 41.605 118.513 41.4458C117.909 40.5546 117.289 39.6767 116.682 38.789C116.235 38.1411 115.835 37.4521 116.042 36.6322C116.108 36.4539 116.23 36.3023 116.39 36.2005C116.549 36.0987 116.737 36.0523 116.924 36.0682C117.112 36.0841 117.29 36.1616 117.43 36.2888C117.57 36.416 117.666 36.586 117.702 36.773C117.8 37.0983 117.866 37.3077 117.986 37.7534L118.275 39.0689L118.666 37.2676C118.785 36.8855 119.001 36.5417 119.292 36.2705C119.584 35.9993 119.941 35.8103 120.327 35.7222C120.407 35.6968 120.491 35.6853 120.575 35.6883C120.755 35.6664 120.935 35.7175 121.078 35.8303C121.22 35.9431 121.313 36.1084 121.335 36.2899V36.314C121.413 36.7777 121.401 37.2525 121.299 37.7115C121.09 38.4172 120.839 39.1097 120.549 39.7854Z" fill="black"/>
<path d="M117.882 49.0412C117.407 49.1096 116.926 49.1359 116.446 49.1196C115.59 49.0958 114.749 49.3548 114.051 49.8576C114.564 49.7458 115.082 49.6646 115.605 49.6143C116.239 49.5884 116.877 49.6589 117.514 49.6802C117.891 49.6977 118.264 49.593 118.578 49.3814C118.892 49.1698 119.131 48.8624 119.261 48.5038C119.366 48.1587 119.363 47.789 119.251 47.446C119.139 47.103 118.924 46.8039 118.636 46.5903C118.561 46.5122 118.503 46.4192 118.465 46.3172C118.427 46.2151 118.411 46.1063 118.417 45.9976C118.491 45.0974 118.167 44.7436 117.26 44.8051C115.816 44.9014 114.294 46.7284 114.25 48.4806C114.571 47.9316 114.705 47.4646 115.017 46.9771C115.231 46.5917 115.526 46.2586 115.882 46.0016C116.238 45.7445 116.645 45.5697 117.075 45.4896C117.075 45.4896 117.945 45.3113 117.835 46.1054C117.809 46.3242 117.71 46.5275 117.554 46.681C117.398 46.8344 117.194 46.9286 116.977 46.9477C117.348 47.0448 117.642 47.0974 117.907 47.1999C118.13 47.2596 118.331 47.3805 118.49 47.5493C118.562 47.6518 118.612 47.7689 118.635 47.8924C118.669 48.1438 118.612 48.3992 118.473 48.6108C118.335 48.8223 118.125 48.9754 117.882 49.0412Z" fill="black"/>
<path d="M112.266 33.3685C112.173 30.6858 112.083 28.119 111.996 25.5977C111.791 25.602 111.592 25.6666 111.424 25.7837C111.255 25.9007 111.124 26.0649 111.046 26.2563C110.933 26.537 110.874 26.8365 110.87 27.1395C110.857 27.5574 110.887 27.9755 110.958 28.3873C111.118 29.3561 111.361 30.201 111.535 31.1332C111.656 31.7936 111.887 32.2874 112.005 32.7508L112.234 33.3747L112.266 33.3685Z" fill="black"/>
<path d="M112.696 47.062C112.588 46.9924 112.62 46.783 112.563 46.6662C112.146 45.7821 111.482 45.5798 110.837 46.3097C110.341 46.9157 109.948 47.6013 109.676 48.3382C109.502 48.9168 109.387 49.5121 109.334 50.1145C109.334 50.1145 109.526 49.2651 111.057 49.037C111.716 48.9051 112.049 48.8872 112.503 48.7847C112.714 48.756 112.908 48.6571 113.056 48.5036C113.204 48.3502 113.297 48.1511 113.32 47.9381C113.36 47.7492 113.323 47.5524 113.219 47.3908C113.114 47.2292 112.951 47.116 112.764 47.0762L112.696 47.062ZM111.467 48.512C110.977 48.6187 110.492 48.752 110.016 48.9113C110.086 48.4357 110.276 47.9863 110.567 47.6058C110.857 47.2252 111.239 46.9263 111.677 46.7375C111.713 46.7275 111.75 46.7255 111.787 46.7316C111.824 46.7378 111.859 46.752 111.89 46.7732C112.377 47.1297 111.978 48.0584 111.978 48.0584C111.978 48.0584 112.265 47.6475 112.604 47.7019C112.942 47.7562 112.651 48.356 111.464 48.5147L111.467 48.512Z" fill="black"/>
<path d="M87.4919 36.2678C87.5254 35.3953 87.0001 34.9434 86.1698 35.2081C85.6476 35.3794 85.185 35.6986 84.837 36.1278C84.4889 36.5571 84.2699 37.0783 84.2061 37.6297C83.9787 38.8836 83.9338 40.1724 83.8086 41.4469L83.9531 41.4977C84.0573 41.3329 84.1417 41.156 84.2043 40.9709C84.3595 40.2499 84.4952 39.5244 84.6248 38.7972C84.8275 37.668 85.1774 36.627 86.2192 35.9942C86.3637 35.9051 86.5955 35.816 86.711 35.8766C86.7782 35.9333 86.831 36.0054 86.8651 36.087C86.8991 36.1685 86.9134 36.2571 86.9067 36.3454C86.8291 37.0111 86.7057 37.6724 86.5999 38.3213C86.8752 38.0554 87.0958 37.7371 87.2489 37.3847C87.402 37.0323 87.4846 36.6527 87.4919 36.2678Z" fill="black"/>
<path d="M83.2221 42.5198C84.9267 41.9752 86.641 41.4601 88.3279 40.8638C88.7367 40.677 89.0888 40.3831 89.3477 40.0127C89.3761 39.9776 89.4026 39.9411 89.427 39.9031C89.5946 39.6386 89.6516 39.3177 89.5855 39.0107C89.5194 38.7038 89.3356 38.4359 89.0745 38.2658C88.3138 37.6767 87.4377 37.8496 86.7379 38.6723C87.2389 38.5821 87.7468 38.5377 88.2557 38.5395C88.391 38.5812 88.515 38.6538 88.6183 38.7516C88.7216 38.8494 88.8014 38.9698 88.8515 39.1036C88.8624 39.2281 88.8441 39.3534 88.7982 39.4694C88.7522 39.5853 88.6799 39.6887 88.5871 39.7712C88.2673 40.0314 87.9108 40.2417 87.5294 40.395C86.8754 40.6704 86.1827 40.8558 85.5357 41.1481C84.7231 41.5162 83.9404 41.9503 83.1445 42.3602L83.2221 42.5198Z" fill="black"/>
<path d="M98.3395 44.8042C98.2339 43.8579 98.0442 42.923 97.7728 42.011C97.4202 40.8818 96.3626 39.979 95.6055 40.8774L98.6136 46.3211C98.4858 45.8033 98.4109 45.1099 98.3395 44.8042Z" fill="black"/>
<path d="M111.279 30.9356C111.235 30.6478 111.167 30.3644 111.074 30.0889C110.649 28.0764 110.245 26.1674 109.836 24.1523L109.671 23.376C109.671 23.376 109.012 23.5453 108.939 24.5417C108.9 25.1651 108.987 25.79 109.193 26.3786C109.704 27.6763 110.251 29.0924 110.78 30.137C110.916 30.4214 111.083 30.6893 111.279 30.9356Z" fill="black"/>
<path d="M105.015 27.2922C105.02 27.3891 105.044 27.484 105.085 27.5717C105.126 27.6593 105.184 27.7378 105.255 27.8028C105.326 27.8678 105.41 27.9179 105.5 27.9503C105.59 27.9828 105.686 27.9969 105.782 27.9918C105.893 27.9871 106.001 27.9566 106.098 27.9027C106.263 27.8164 106.401 27.6868 106.5 27.5274C106.598 27.3681 106.652 27.1849 106.656 26.9972C106.886 27.0789 107.136 27.0835 107.369 27.0103C107.602 26.9371 107.806 26.79 107.95 26.5908C108.081 26.348 108.134 26.0699 108.102 25.7952C108.069 25.5206 107.952 25.2631 107.768 25.0587C107.534 24.7948 107.231 24.6026 106.895 24.504C106.558 24.4054 106.2 24.4043 105.863 24.5008C106.155 24.5349 106.437 24.629 106.692 24.7771C106.922 24.9057 107.114 25.0952 107.247 25.3252C107.247 25.3252 107.616 26.1158 107.049 26.3413C106.481 26.5667 106.29 26.1381 106.29 26.1381C106.315 26.3475 106.294 26.56 106.229 26.7603C106.163 26.9606 106.055 27.1438 105.911 27.2967C105.614 27.466 105.411 27.22 105.294 26.7325C105.177 26.245 104.965 24.5766 104.965 24.5766L104.955 25.3163C104.94 25.9756 104.96 26.6352 105.015 27.2922Z" fill="black"/>
<path d="M113.57 22.7064C113.661 22.3643 113.656 22.0031 113.555 21.6639C113.453 21.3246 113.26 21.0208 112.997 20.7867C113.128 21.0533 113.204 21.3441 113.221 21.6414C113.239 21.9068 113.186 22.1723 113.068 22.4096C113.068 22.4096 112.61 23.1547 112.118 22.7938C111.627 22.4328 111.874 22.0389 111.874 22.0389C111.714 22.1745 111.527 22.2725 111.325 22.3258C111.123 22.3791 110.911 22.3865 110.706 22.3473C110.404 22.1877 110.498 21.8829 110.84 21.5148C111.182 21.1467 112.45 20.063 112.45 20.063L111.833 20.4578C111.276 20.8047 110.738 21.1816 110.221 21.587C110.121 21.6611 110.042 21.7593 109.99 21.8727C109.938 21.9861 109.916 22.1109 109.925 22.2355C109.934 22.36 109.973 22.4803 110.041 22.5851C110.108 22.6899 110.2 22.7758 110.309 22.8348C110.471 22.928 110.654 22.9754 110.84 22.972C111.027 22.9685 111.208 22.9143 111.367 22.8152C111.424 23.0552 111.556 23.2702 111.744 23.4284C111.931 23.5865 112.164 23.6793 112.408 23.693C112.679 23.6703 112.936 23.5632 113.144 23.3865C113.352 23.2098 113.501 22.9722 113.57 22.7064Z" fill="black"/>
<path d="M112.994 33.4578C113.304 31.7698 113.776 30.0969 114.087 28.4009C113.108 28.3759 112.594 28.8376 112.635 29.8643C112.687 31.0666 112.867 32.2626 112.988 33.4623L112.994 33.4578Z" fill="black"/>
<path d="M155.273 78.8988H155.057C154.719 78.8999 154.385 78.8361 154.071 78.7107C153.833 78.5862 153.639 78.3917 153.513 78.153C153.387 77.9143 153.335 77.6426 153.366 77.3738C153.482 76.2199 153.838 75.1037 154.41 74.0985C154.441 74.6903 154.779 75.2509 155.334 75.2509C155.92 75.2509 157.46 74.0646 158.045 72.1974C158.108 71.9533 158.139 71.702 158.137 71.4497C158.148 71.2182 158.11 70.987 158.025 70.7718C157.94 70.5565 157.81 70.3622 157.645 70.2019C157.355 70.0325 157.025 69.9465 156.69 69.9533C155.119 69.9533 152.654 71.4176 151.823 74.4095C151.756 74.6763 151.705 74.9468 151.669 75.2197C149.73 77.0913 146.557 79.6759 144.122 79.8292H143.935C143.492 79.825 143.053 79.7408 142.64 79.5806C142.35 79.4316 142.112 79.1966 141.958 78.907C141.803 78.6174 141.74 78.2871 141.777 77.9603C141.777 76.7125 142.482 75.0949 143.041 73.9737C143.102 74.6582 143.502 75.3748 144.18 75.3748C144.885 75.3748 146.767 73.9416 147.477 71.668C147.575 71.3661 147.627 71.0509 147.63 70.7331C147.634 70.4518 147.578 70.1729 147.467 69.9151C147.355 69.6573 147.19 69.4266 146.983 69.2385C146.634 69.0148 146.224 68.9061 145.811 68.9275C143.901 68.9275 140.913 70.7331 139.927 74.3783C139.851 74.6073 139.792 74.8418 139.751 75.0798C137.239 78.1688 133.256 82.6554 130.473 84.1598C130.13 84.385 129.739 84.5238 129.333 84.5644C129.114 84.5607 128.901 84.4959 128.716 84.3773C128.528 84.2599 128.375 84.0942 128.272 83.8971C128.169 83.7 128.12 83.4788 128.13 83.2561C128.168 82.6691 128.325 82.0964 128.592 81.5734C130.287 77.8667 133.429 75.1252 133.429 72.0103L133.398 71.5745C133.274 70.4836 132.751 69.8294 131.919 68.8018C131.504 68.3376 131.05 67.91 130.563 67.5237C131.149 66.5273 131.765 65.4052 131.765 64.1602C131.769 63.9828 131.758 63.8054 131.733 63.6299C131.652 63.0269 131.37 62.4699 130.934 62.0508C130.497 61.6318 129.933 61.3758 129.333 61.3251C129.134 61.3221 128.937 61.3522 128.748 61.4142C127.731 61.6968 127.24 62.7511 127.24 63.842C127.234 64.2476 127.307 64.6504 127.456 65.0274C127.95 66.1797 128.874 66.9275 129.797 67.6753C128.442 70.3543 127.334 72.4728 126.348 74.1814C123.792 78.6046 122.217 80.6296 120.309 82.1866C119.834 82.676 119.199 82.9748 118.523 83.0279C118.355 83.0283 118.188 82.9981 118.03 82.9388C117.713 82.7771 117.471 82.498 117.352 82.1598C117.157 81.5997 117.062 81.0087 117.073 80.4148C117.073 74.996 123.204 65.276 126.504 60.3857H136.423V59.7619H126.904L127.521 58.8893C127.705 58.6368 127.803 58.3306 127.8 58.0168C127.807 57.8594 127.782 57.7023 127.729 57.5544C127.675 57.4065 127.593 57.2707 127.488 57.1548C127.382 57.039 127.255 56.9452 127.114 56.879C126.973 56.8128 126.82 56.7755 126.664 56.769H126.627C126.407 56.7771 126.193 56.8413 126.005 56.9557C125.816 57.0701 125.66 57.231 125.549 57.4232C125.026 58.1362 124.502 58.9149 123.978 59.7592H115.324V60.3831H123.58C119.944 66.1762 116 74.2126 116 79.4157C115.961 80.449 116.173 81.4762 116.617 82.4076C116.73 82.6651 116.895 82.8956 117.102 83.0837C117.309 83.2717 117.553 83.4131 117.819 83.4985C118.053 83.5947 118.304 83.6472 118.557 83.6536C119.353 83.5851 120.103 83.2447 120.682 82.6883C122.654 81.0369 124.318 78.9807 126.906 74.4639C127.861 72.7509 128.971 70.6636 130.294 68.0781C130.722 68.411 131.114 68.7867 131.467 69.1993C131.797 69.5788 131.983 70.0652 131.99 70.5709C131.99 73.0664 127.185 75.897 126.754 81.0992L126.723 81.6607C126.689 82.3051 126.829 82.9466 127.127 83.517C127.426 84.0874 127.871 84.5652 128.417 84.8995C128.693 85.0756 129.015 85.1627 129.341 85.1491C131.771 85.1491 136.744 79.6848 139.668 76.168C139.667 76.5477 139.708 76.9264 139.789 77.2972C140.127 78.9166 140.928 79.5396 142.438 80.1625C142.91 80.3464 143.411 80.4422 143.916 80.4451C145.236 80.3595 146.511 79.9297 147.618 79.1973C149.051 78.2939 150.393 77.249 151.622 76.078L151.71 76.8257C152.018 78.1332 152.665 78.6635 153.898 79.1617C154.296 79.3339 154.727 79.4189 155.16 79.4112C156.225 79.3466 157.255 79.0029 158.149 78.4139C160.058 77.1505 161.797 75.6431 163.324 73.9291L162.955 73.586C161.988 74.6929 158.08 78.7428 155.273 78.8988ZM155.088 72.824C155.506 72.0723 156.036 71.39 156.659 70.8009C156.785 70.6787 156.948 70.6022 157.121 70.5834C157.208 70.5742 157.295 70.5963 157.367 70.6458C157.469 70.7385 157.548 70.8547 157.597 70.9847C157.645 71.1147 157.662 71.2546 157.646 71.3927C157.65 71.614 157.62 71.8345 157.558 72.0468C157.066 73.7295 155.679 74.7562 155.341 74.7562C155.061 74.7562 154.909 74.2571 154.909 73.9461C154.91 73.5651 154.972 73.1867 155.092 72.8258L155.088 72.824ZM143.874 72.4194C144.386 71.5075 145.03 70.6781 145.785 69.9586C145.941 69.7973 146.149 69.6972 146.371 69.6761C146.479 69.6773 146.585 69.7081 146.678 69.7652C146.796 69.8945 146.887 70.0468 146.946 70.2129C147.004 70.379 147.028 70.5554 147.017 70.7313C147.008 70.9846 146.967 71.2356 146.894 71.4782C146.277 73.5031 144.583 74.75 144.182 74.75C143.844 74.75 143.659 74.1573 143.659 73.7527C143.671 73.2994 143.744 72.8498 143.874 72.4158V72.4194ZM130.103 67.1236C128.931 66.1887 127.854 65.1628 127.854 63.8839C127.848 63.5757 127.9 63.2692 128.008 62.981C128.091 62.6948 128.26 62.4419 128.492 62.2576C128.724 62.0734 129.007 61.967 129.302 61.9534C129.596 61.9632 129.882 62.0488 130.133 62.2021C130.457 62.4038 130.722 62.689 130.901 63.0284C131.079 63.3678 131.166 63.7492 131.15 64.1334C131.07 65.2065 130.709 66.2385 130.103 67.1236Z" fill="black"/>
<path d="M94.5693 51.0894C95.1783 51.7926 96.2034 51.1019 97.1068 50.7409C97.4349 50.5789 97.8089 50.5387 98.1633 50.6273C98.5178 50.716 98.8302 50.9278 99.0458 51.2258C99.5916 51.7491 100.179 52.2261 100.802 52.6518C99.936 51.8006 99.5835 50.5546 99.0943 49.667C98.8857 49.2597 98.5941 48.9018 98.2388 48.6169C97.8834 48.3319 97.4724 48.1263 97.0327 48.0137C96.625 47.9673 96.2309 47.8372 95.8746 47.6313C95.8746 47.6313 95.8014 47.9272 96.8873 48.3443C97.5796 48.6542 98.1381 49.2061 98.4606 49.8987C97.826 49.5903 96.399 50.2445 95.7283 50.4628C95.0576 50.6812 95.0637 50.2454 95.5573 49.8711C95.8465 49.6717 96.0846 49.4056 96.2518 49.0948C96.2518 49.0948 95.2638 49.3167 94.9588 49.1313C94.6539 48.9459 94.861 48.3051 94.861 48.3051C94.7594 48.3834 94.6788 48.486 94.6265 48.6038C94.5743 48.7216 94.552 48.8508 94.5617 48.9795C94.5714 49.1083 94.6129 49.2325 94.6822 49.3409C94.7516 49.4493 94.8467 49.5384 94.9588 49.6001C94.9588 49.6001 93.9594 50.3862 94.5693 51.0894Z" fill="black"/>
</svg>
